<svg xmlns="http://www.w3.org/2000/svg" viewBox="0 0 337.09 179.95"><defs><style>.cls-1{fill:#91009c;}.cls-2{fill:#91009d;}.cls-3{fill:#91019d;}.cls-4{fill:#c566cd;}</style></defs><g id="Capa_2" data-name="Capa 2"><g id="Capa_1-2" data-name="Capa 1"><path class="cls-1" d="M65.27,96.83H282.4c1.46,0,1.45,0,1.16,1.48-1.62,8.1-3.25,16.19-4.84,24.29-.16.82-.43,1.1-1.3,1.09-7.75,0-15.51,0-23.27,0-.91,0-1.21.19-1.2,1.16q.09,6.36,0,12.71c0,1,.32,1.18,1.22,1.17,7.64,0,15.28,0,22.91,0,1.06,0,1.48.22,1.68,1.38,1.58,9.4,3.24,18.79,4.92,28.17.17,1,.08,1.29-1,1.29q-108.13,0-216.26,0c-.93,0-1.17-.16-1-1.16q2.27-14.31,4.4-28.63c.13-.89.53-1,1.34-1,6.6,0,13.19,0,19.79,0,1,0,1.43-.18,1.41-1.34-.08-4.2-.06-8.39,0-12.59,0-.88-.2-1.13-1.11-1.12-6.72,0-13.43,0-20.15,0-.75,0-1.13-.14-1.28-1-1.45-8.45-3-16.9-4.44-25.35C65.31,97.23,65.3,97.08,65.27,96.83Zm107.27,26.84q-37.06,0-74.13,0c-1,0-1.3.21-1.28,1.24.06,4.11.08,8.23,0,12.34,0,1.27.38,1.49,1.54,1.49q32.82-.06,65.62,0,41.21,0,82.41,0c1.1,0,1.4-.29,1.38-1.39q-.1-6.16,0-12.34c0-1.16-.37-1.34-1.41-1.34Q209.61,123.69,172.54,123.67Z"/><path class="cls-2" d="M142.67,67.59l2.2.65c-2.77,3.2-5.68,6-9.88,6.72a101.33,101.33,0,0,1-20.48,2c-.92,0-1.83-.12-2.9-.2a30.26,30.26,0,0,0,2.29,4,.65.65,0,0,0,.63.25h.84q55.47,0,110.93,0a2,2,0,0,0,2.07-1.18c.51-1,1.14-2,1.84-3.19a40,40,0,0,1-7,.23A113.15,113.15,0,0,1,206.67,75c-4.17-.75-7.06-3.52-9.83-6.71l2.21-.67,4.18-1.23c-2.36-.26-4.61-.73-6.87-1.11a26.16,26.16,0,0,1-6.74-3.54,21.46,21.46,0,0,1-5.92-7.85c-.22-.47-.47-.92-.71-1.38-.12-.82.28-1,1-.95,1.66.22,3.32.45,5,.59a26.11,26.11,0,0,0,5.16.25A29.88,29.88,0,0,1,183.56,46a23.32,23.32,0,0,1-4.72-7.38,2,2,0,0,0-.16-1,26.48,26.48,0,0,1-.76-6.52c0-1,.19-1.19,1.12-.67,2.61,1.47,5.24,2.92,7.92,4.25a68.35,68.35,0,0,0,8.7,4l.27.09-.21-.17A57.31,57.31,0,0,1,183.83,29c-.08-.15-.16-.31-.38-.28h.05a50.73,50.73,0,0,1-4.31-7.41c.28-.31.06-.62,0-.9a19.88,19.88,0,0,1,1.2-13.56c.59-1.38.65-1.39,1.54-.24a197.39,197.39,0,0,0,19.63,21.65,24.59,24.59,0,0,0,6.07,4.23,17,17,0,0,0,12,1,7.58,7.58,0,0,1,6.11.93,11,11,0,0,1,3,3.24,19.48,19.48,0,0,0,4.52,4.76c3.65,2.69,7.58,4.41,12.27,3.67,1-.16,1.29-.4,1.56-1.6-4.76.86-8.69-.27-11.27-4.67-2-5.38,1.49-9.22,5.21-10.46,5-1.67,10.58.48,11.89,5.1,1.58,5.54,4.27,10.62,5.83,16.14a89,89,0,0,1,3.39,25.06A39.35,39.35,0,0,1,262,79.7c-.12,1,.07,1.35,1.19,1.34,6.88-.06,13.75,0,20.63,0,3.84,0,7.67,0,11.51,0,.7,0,1,.19,1.1.89.69,4,1.4,7.93,2.17,11.89.18,1-.05,1.18-1,1.18q-126.11,0-252.22,0c-.93,0-1.25-.11-1-1.16,1.07-3.88,2.06-7.78,3-11.69.21-.84.56-1.1,1.44-1.1,9.88,0,19.75,0,29.62.05,1,0,1.22-.23,1.16-1.25A85.08,85.08,0,0,1,87.32,39c.73-1.59.84-3.3,1.45-4.88a9.18,9.18,0,0,1,8.74-5.39,9.05,9.05,0,0,1,8.63,5.89,7.44,7.44,0,0,1-.31,5.15c-2.2,3.83-5.58,5.26-9.87,4.86-.33,0-.8-.28-.93.18a.89.89,0,0,0,.55,1,3.66,3.66,0,0,0,.91.27A13.65,13.65,0,0,0,105,44.56a21.68,21.68,0,0,0,8.54-7.67c2.05-3.11,5-4.18,8.63-3.44.7.15,1.4.31,2.11.43a16.12,16.12,0,0,0,3.93.24c4.81-.43,8.71-2.74,12.11-6A191.33,191.33,0,0,0,159.86,6.5c.76-1,.87-1,1.37.17a20.07,20.07,0,0,1,.88,15.14,24.24,24.24,0,0,1-3.22,5.83c-.25.34-.66.59-.68,1.08h0l-.26,0a49.23,49.23,0,0,1-12.33,9.9.74.74,0,0,0,.81-.08c4.67-2.06,9.24-4.34,13.72-6.78.91-.5,1.82-1,2.72-1.52.63-.36.87-.16.85.52,0,.91,0,1.84-.11,2.74-.19,1.65-.45,3.29-.68,4.93A29,29,0,0,1,158.25,46l0,0-.23.25a30.84,30.84,0,0,1-9.3,5.55,2.39,2.39,0,0,0-1.38.75c1-.07,1.78-.09,2.56-.18,2.54-.26,5.08-.55,7.62-.83.69-.07,1.34-.11,1.16.91a46.89,46.89,0,0,1-3.22,5.7,18.92,18.92,0,0,1-9,6.6c-.45.16-.87.39-1.3.59-2.24.26-4.43.78-6.72,1Z"/><path class="cls-3" d="M45.91,133.61H2.61c-2.21,0-2.6-.38-2.6-2.56,0-.64,0-1.28,0-1.92a1.68,1.68,0,0,1,1.89-1.83h.72q43.37,0,86.72,0c1.31,0,1.62.39,1.52,1.58a27.17,27.17,0,0,0,0,3.72c0,.83-.2,1.09-1.06,1.07-2.59,0-5.19,0-7.79,0Z"/><path class="cls-3" d="M295,133.61H255.68c-1.9,0-1.62.16-1.64-1.69,0-1.23,0-2.47,0-3.71,0-.76.26-1,1-.92a3.85,3.85,0,0,0,.48,0h79c2.18,0,2.56.38,2.56,2.58,0,3.73,0,3.73-3.67,3.73Z"/><path class="cls-4" d="M235.82,39.79c2.58,4.4,6.51,5.53,11.27,4.67-.27,1.2-.54,1.44-1.56,1.6-4.69.74-8.62-1-12.27-3.67a19.48,19.48,0,0,1-4.52-4.76,11,11,0,0,0-3-3.24,7.58,7.58,0,0,0-6.11-.93,17,17,0,0,1-12-1,24.59,24.59,0,0,1-6.07-4.23A197.39,197.39,0,0,1,181.91,6.62c-.89-1.15-.95-1.14-1.54.24a19.88,19.88,0,0,0-1.2,13.56c.08.28.3.59,0,.9a12.52,12.52,0,0,1-2.92-5.11c-2.1-5.59-1.28-11,1.25-16.21.59.16.78.64,1.06,1a200.09,200.09,0,0,0,18.93,21A28.61,28.61,0,0,0,202,25.56a16.42,16.42,0,0,0,13.39,2.36,8.51,8.51,0,0,1,6.73.62,9.92,9.92,0,0,1,3.13,3.25,21,21,0,0,0,8.12,7.08A9.49,9.49,0,0,0,235.82,39.79Z"/><path class="cls-4" d="M162.11,21.81a20.07,20.07,0,0,0-.88-15.14c-.5-1.14-.61-1.16-1.37-.17a191.33,191.33,0,0,1-19.59,21.64c-3.4,3.24-7.3,5.55-12.11,6a16.12,16.12,0,0,1-3.93-.24c-.71-.12-1.41-.28-2.11-.43-3.64-.74-6.58.33-8.63,3.44A21.68,21.68,0,0,1,105,44.56a13.65,13.65,0,0,1-8.46,1.53,3.66,3.66,0,0,1-.91-.27.89.89,0,0,1-.55-1c.13-.46.6-.21.93-.18,4.29.4,7.67-1,9.87-4.86a19.54,19.54,0,0,0,10-7.12c.58-.76,1.1-1.58,1.71-2.31A7.42,7.42,0,0,1,125,27.66c2.28.39,4.51,1,6.87.73a20,20,0,0,0,11.69-5.83A189.58,189.58,0,0,0,163.24.83c.83-1.07.85-1.06,1.38.13,3,6.79,2.67,13.35-1.4,19.63A2.73,2.73,0,0,1,162.11,21.81Z"/><path class="cls-3" d="M97.55,170.89c1.52,0,3,0,4.55,0,.64,0,.81.2.8.82q0,3.7,0,7.41c0,.61-.17.85-.81.84q-4.66,0-9.33,0c-.6,0-.74-.24-.74-.78,0-2.51,0-5,0-7.54,0-.7.32-.75.87-.75C94.44,170.91,96,170.89,97.55,170.89Z"/><path class="cls-1" d="M251.64,179.84c-1.52,0-3,0-4.55,0-.69,0-.88-.22-.87-.89q0-3.59,0-7.17c0-.63.11-.92.84-.91,3.07,0,6.14,0,9.21,0,.69,0,.87.21.86.88,0,2.39-.05,4.78,0,7.17,0,.75-.23.94-.95.92C254.67,179.8,253.15,179.84,251.64,179.84Z"/><path class="cls-4" d="M183.83,29a57.31,57.31,0,0,0,11.89,9.55l-.07.08a68.86,68.86,0,0,1-8.69-4c-2.68-1.33-5.31-2.78-7.92-4.25-.93-.52-1.13-.33-1.12.67a26.48,26.48,0,0,0,.76,6.52,2,2,0,0,1,.16,1,15.11,15.11,0,0,1-3.39-6.22,22.78,22.78,0,0,1-.84-8.21l2.08,1.1a48.17,48.17,0,0,0,6.81,3.42h-.05Z"/><path class="cls-4" d="M163,38.45c.23-1.64.49-3.28.68-4.93.1-.9.07-1.83.11-2.74,0-.68-.22-.88-.85-.52-.9.52-1.81,1-2.72,1.52-4.48,2.44-9,4.72-13.72,6.78a.74.74,0,0,1-.81.08A49.23,49.23,0,0,0,158,28.74c.1.12.21.24.26,0h0a21.13,21.13,0,0,0,4.29-2c1.49-.76,2.93-1.6,4.56-2.49a21.36,21.36,0,0,1-.93,8.59A13.52,13.52,0,0,1,163,38.45Z"/><path class="cls-4" d="M183.56,46a29.88,29.88,0,0,0,10.62,6.34,26.11,26.11,0,0,1-5.16-.25c-1.67-.14-3.33-.37-5-.59-.76-.1-1.16.13-1,.95a18,18,0,0,1-3.36-6.1c-.27-.65.18-.62.61-.59A15.34,15.34,0,0,0,183.56,46Z"/><path class="cls-4" d="M158.71,52.44c.18-1-.47-1-1.16-.91-2.54.28-5.08.57-7.62.83-.78.09-1.58.11-2.56.18a2.39,2.39,0,0,1,1.38-.75,30.84,30.84,0,0,0,9.3-5.55l.23-.25,0,0a12.8,12.8,0,0,0,3.09-.22c.48,0,1,0,.69.66C161.17,48.59,160.37,50.75,158.71,52.44Z"/><path class="cls-4" d="M196.36,65.24c2.26.38,4.51.85,6.87,1.11l-4.18,1.23C198.33,66.59,197,66.29,196.36,65.24Z"/><path class="cls-4" d="M142.67,67.59l-4.21-1.21c2.29-.27,4.48-.79,6.72-1C144.62,66.39,143.28,66.59,142.67,67.59Z"/><path class="cls-3" d="M172.78,127.3q36.33,0,72.67,0c1.26,0,1.57.35,1.48,1.52a30.75,30.75,0,0,0,0,3.84c0,.8-.27,1.08-1,1a5.77,5.77,0,0,0-.72,0H100.32c-2.07,0-1.73.23-1.75-1.8,0-1.19,0-2.4,0-3.59,0-.77.26-1,1-.92a5.89,5.89,0,0,0,.84,0Z"/></g></g></svg>