<svg xmlns="http://www.w3.org/2000/svg" viewBox="0 0 510.83 511.05"><defs><style>.cls-1{fill:#92019d;}.cls-2{fill:#fffeff;}.cls-3{fill:#f4c313;}.cls-4{fill:#fcf8fc;}.cls-5{fill:#92039e;}.cls-6{fill:#c667ce;}</style></defs><g id="Capa_2" data-name="Capa 2"><g id="Capa_1-2" data-name="Capa 1"><path class="cls-1" d="M263.27,511.05H248.89c-4.84-.14-6.93-.25-11-.51-7.88-.55-15.72-1.48-23.53-2.74a241.48,241.48,0,0,1-66.54-20.61Q51.95,441,15.07,341.08A238.12,238.12,0,0,1,1.84,282.85c-.43-4.21-.78-8.42-1.16-12.63C.37,266.5.52,268,.3,265.57c-.28-3.09-.15-2.78-.3-5.92V246.21c.39-4.55.45-4.71.56-6.3a270.46,270.46,0,0,1,4.86-35.19,249.77,249.77,0,0,1,37-89.56Q91.67,41.33,175.79,12.8A241.1,241.1,0,0,1,233.59,1C238.05.61,242.51.32,247,0h17.26c6.29.48,12.6.77,18.87,1.44A253.55,253.55,0,0,1,420.59,60.5q59.85,51,81.25,126.87a245.39,245.39,0,0,1,8,43.53c.49,5.26.78,10.52.95,15.79v17.76c0,.32-.09.63-.09.95a231.1,231.1,0,0,1-6.09,47.22,251.17,251.17,0,0,1-36.48,84.69,255,255,0,0,1-86.37,80.52,250.4,250.4,0,0,1-77.12,28.61,242,242,0,0,1-32.29,4.14C268.85,510.58,267.19,511.05,263.27,511.05Zm57.45-207.31c9.94.1,25.12,0,40.29-.79a473.88,473.88,0,0,0,52.9-5.34A310.12,310.12,0,0,0,462.29,286a231.78,231.78,0,0,0,41.13-18.18,3.59,3.59,0,0,0,2.1-3.55c0-8.24.11-16.46-.41-24.69a250.35,250.35,0,0,0-4.95-36.28A245.58,245.58,0,0,0,469,125.11a249.13,249.13,0,0,0-92.89-88.78C340.89,16.87,303.11,6.78,263,5.48A250.36,250.36,0,0,0,163.67,23a251.2,251.2,0,0,0-139,137.21A244.83,244.83,0,0,0,9.47,212.76a260.66,260.66,0,0,0-3.41,31.9,257.92,257.92,0,0,0,1.55,41.4c.15,1.3.69,1.56,1.83,1.51,2.56-.09,5.12-.09,7.67-.15,22.71-.52,45.39,0,68.07,1.15q24.18,1.19,48.31,3.12c11.39.93,22.79,1.71,34.18,2.63,14.57,1.17,29.13,2.48,43.71,3.61,15.37,1.19,30.75,2.33,46.13,3.33C276.81,302.52,296.13,303.34,320.72,303.74Zm85.18,48.67a2.75,2.75,0,0,1,.59,1.81c.87,5.76,1.64,11.54,2.56,17.3.85,5.34-.43,4.23,5.12,4.34,1.68,0,1.71-.08,1.49-1.82,0-.16-.06-.32-.08-.47q-1.6-11-3.22-22.05-.84-5.81-1.75-11.6c-.08-.53.07-1.3-.57-1.46a9.53,9.53,0,0,0-3.8-.06c-.95.14-.93,1.19-1.19,1.91q-3.71,10.11-7.36,20.25c-.26.71-.56,1.41-.88,2.19a3.75,3.75,0,0,1-1.2-2.18c-2.62-6.86-5.21-13.73-7.82-20.6-.68-1.78-1.12-1.88-4.08-1.68-1.62.12-1.35,1.31-1.51,2.24q-2.76,16.79-5.49,33.57a1.79,1.79,0,0,0,.2,1.77c1.28,0,2.7-.05,4.12,0a1.54,1.54,0,0,0,1.89-1.54c.5-3.4,1.12-6.78,1.69-10.16.67-4,1.35-7.95,2-12.05,1,.58,1,1.47,1.2,2.18,2.27,6.56,4.5,13.14,6.74,19.71a12.34,12.34,0,0,0,.56,1.58,1,1,0,0,0,2,.07,10.1,10.1,0,0,0,.61-1.56q3.52-9.67,7.06-19.34A5.53,5.53,0,0,1,405.9,352.41ZM115.59,376.82A16.32,16.32,0,0,0,130,369.26c4.57-6.83,4.88-14.13,1.16-21.35A16.6,16.6,0,0,0,116,338.34c-7.14-.16-12.39,3.1-16,9.14a20,20,0,0,0-2.58,11.75C98,368.65,105.33,377.15,115.59,376.82Zm235.48,0c5.81.07,10.69-2.65,14.23-7.84a21,21,0,0,0,.22-22.44,17.61,17.61,0,0,0-29.61-.39c-4.59,7-4.8,14.47-.74,21.77C338.45,373.81,343.68,376.85,351.07,376.83Zm-54.58-19.25c0,5.44,0,10.87,0,16.31,0,1.94,0,2,2,2,3.28,0,6.55,0,9.82-.08a15.62,15.62,0,0,0,10.37-4.37c4.74-4.47,6.21-10.07,5.57-16.38-.95-9.25-7.85-15.6-17.15-15.75-2.87,0-5.75,0-8.63,0-2,0-2,0-2,2C296.47,346.71,296.49,352.15,296.49,357.58Zm-90,0c0,5.52,0,11,0,16.54,0,1.69,0,1.74,1.73,1.74,3.36,0,6.71.06,10.06-.07a15.72,15.72,0,0,0,10.7-4.71c4.15-4.09,5.67-9.16,5.36-14.84-.54-9.82-7.73-17.11-17.74-17-2.72,0-5.43,0-8.14,0-1.94,0-2,0-2,2C206.53,346.72,206.54,352.15,206.54,357.58Zm-46-1.3c2.41-3.17,2.91-4.88,2.57-8.6-.39-4.4-2.67-7-7-8-3.87-.84-7.79-.3-11.69-.43-.85,0-1.11.45-1.09,1.2,0,.56,0,1.12,0,1.68v26.59c0,1.84,0,3.67,0,5.51,0,1,.21,1.64,1.43,1.62,4-.08,8,.08,12-.18a9.8,9.8,0,0,0,8.07-4.47A10.63,10.63,0,0,0,160.56,356.28ZM268,404.3h0c0,4.31,0,8.62,0,12.94,0,.89.18,1.31,1.16,1.29,4.23-.08,8.48.09,12.69-.22,5.21-.39,8.69-3.27,10.29-8.3a18.36,18.36,0,0,0,.5-9.22c-1.09-5.73-4.54-9-10.25-9.77-4.45-.57-8.93-.12-13.39-.35-1.13-.05-1,.64-1,1.41C268,396.15,268,400.22,268,404.3Zm64.3.33h0c0,4.15,0,8.3,0,12.45,0,.74-.12,1.47,1,1.44,4.46-.13,9,.29,13.39-.25,5-.61,8.27-3.5,9.78-8.32a18.36,18.36,0,0,0,.46-9.22c-1.18-5.88-4.59-9-10.53-9.74-4.3-.52-8.61-.09-12.92-.32-1.18-.06-1.21.59-1.2,1.5C332.31,396.32,332.29,400.48,332.29,404.63Zm-181.84.71a6.85,6.85,0,0,0,3.68-3.22c2.41-5.09-.28-10.27-5.84-11.16a15.5,15.5,0,0,0-2.14-.21q-5.86-.06-11.73-.06c-1.57,0-1.55,0-1.55,1.61,0,7,0,14.06.15,21.08,0,1.67-1.1,3.94.42,4.87,1.28.79,3.41.18,5.17.24,1.08,0,1.38-.42,1.24-1.45a59.19,59.19,0,0,1-.21-7.65c0-.53-.12-1.12.64-1.36a5.43,5.43,0,0,1,6.61,2.84,40.4,40.4,0,0,1,2.28,6.29c.2.74.43,1.35,1.38,1.33,2.14,0,4.29,0,6.87,0C154.92,414,154.21,409,150.45,405.34Zm39.08-.89c0-.8,0-1.6-.11-2.39a12.61,12.61,0,0,0-12-11.85c-7.06-.56-12.5,3.19-14.16,9.83a18.08,18.08,0,0,0-.4,6.88c1.16,8.33,6.5,12.74,14.84,12.07a12,12,0,0,0,10.21-6.9A15.51,15.51,0,0,0,189.53,404.45ZM259,407.37a23.41,23.41,0,0,0,0-6c-3.08,0-6,0-9,0-3.35,0-3,.39-3-3.15,0-.24,0-.48,0-.71a.85.85,0,0,1,.87-.93c.55,0,1.12,0,1.67,0,3.58,0,7.16-.07,10.78.23a26,26,0,0,0,.21-5.16c0-.88-.48-1-1.23-1-5.91.22-11.82.14-17.73.05-1,0-1.4.3-1.37,1.36q.31,12.59,0,25.17c0,1.12.41,1.37,1.39,1.33,1.51-.06,3,0,4.55,0,4.47,0,8.95,0,13.42.12,1.07,0,1.44-.26,1.38-1.3s0-2.08,0-3.11c0-1.59-.05-1.59-1.57-1.58-2.95,0-5.91.09-8.86.05-4.06,0-3.47.68-3.51-3.56,0-1.91,0-1.94,2-1.95C252.3,407.13,255.57,407.12,259,407.37Zm105.44-2.06c-.11,3.91.19,7.83-.24,11.73-.14,1.25.33,1.5,1.43,1.5,6.07,0,12.14-.18,18.2.07,1,.05,1.22-.44,1.19-1.29,0-1,0-2.08,0-3.12,0-1.58-.06-1.59-1.61-1.58l-8.61.06c-4.11,0-4.2-.13-3.78-4.29.09-.93.47-1.25,1.34-1.24,2.15,0,4.31.08,6.46,0,1.4,0,3.19.86,4.1-.23s.26-2.76.25-4.19-.06-1.48-1.71-1.45c-2.79.05-5.59.1-8.38.11-2,0-2,0-2-1.93,0-3.25-.15-2.89,2.8-2.89,3.11,0,6.22-.09,9.33.15.52,0,1.29.25,1.36-.53.15-1.74.58-3.66-.18-5.18-.51-1-2.2-.12-3.36-.28a11.37,11.37,0,0,0-1.43,0c-4.63,0-9.26,0-13.89-.06-1.1,0-1.6.24-1.47,1.48C364.61,396.52,364.26,400.92,364.39,405.31Zm-187.9-47.69c0,5.35,0,10.7,0,16.06,0,2.17,0,2.19,2.27,2.19H192.9c2.59,0,2.59,0,2.58-2.62,0-.16,0-.32,0-.48,0-2.13,0-2.15-2.09-2.16-3,0-6.07,0-9.11,0-1.08,0-1.59-.31-1.56-1.5.06-2.8.05-5.59,0-8.39,0-1.07.45-1.38,1.44-1.37q3.83,0,7.67,0c3.55,0,3.23.57,3.23-3.39,0-1.82,0-1.85-1.87-1.86-3,0-5.91,0-8.87,0-1.07,0-1.63-.26-1.6-1.46.06-2.24.05-4.48,0-6.71,0-1.06.45-1.39,1.44-1.37,2.64,0,5.27.05,7.91,0,3.67-.07,3.38.88,3.43-3.7,0-1.31-.53-1.61-1.73-1.6-5.19,0-10.38,0-15.57,0-1.65,0-1.7.06-1.7,1.79C176.48,346.59,176.49,352.1,176.49,357.62Zm90.07-.05c0,5.51,0,11,0,16.54,0,1.7.05,1.75,1.72,1.76,4.63,0,9.27,0,13.9,0,3.67,0,3.21.59,3.23-3.36,0-1.85,0-1.89-1.84-1.9-3,0-6.07,0-9.11,0-1.17,0-1.74-.27-1.7-1.59.09-2.71.07-5.43,0-8.15,0-1.14.36-1.56,1.51-1.53,2.47.07,5,0,7.43,0,3.55,0,3.31.62,3.3-3.33,0-1.9,0-1.91-2-1.93-2.88,0-5.75,0-8.63,0-1.1,0-1.6-.3-1.57-1.48q.09-3.36,0-6.71c0-1.08.46-1.37,1.44-1.36,2.56,0,5.12.05,7.67,0,4-.07,3.5.76,3.52-3.56,0-1.67-.05-1.71-1.76-1.71-5,0-10.07,0-15.1,0-1.95,0-2,0-2,2C266.55,346.7,266.56,352.13,266.56,357.57Zm146.6,40.2a7.47,7.47,0,0,0-4-6,13.8,13.8,0,0,0-13.75.17,7.74,7.74,0,0,0-.87,12.64,9.12,9.12,0,0,0,3.64,1.72c2.09.55,4.19,1,6.25,1.65,1.61.49,2.25,1.41,2.17,2.73s-1,2.29-2.67,2.6c-3,.57-4.54-.2-5.89-3-.25-.51-.49-.8-1-.75l-5,.48c-.8.08-1,.47-.88,1.3.54,2.73,1.73,5.06,4.32,6.26a16.11,16.11,0,0,0,14.11,0c3-1.41,4.12-4.12,4.18-7.28a7.46,7.46,0,0,0-3.95-7.15,17.12,17.12,0,0,0-4.28-1.49c-1.62-.4-3.28-.69-4.88-1.18a2.4,2.4,0,0,1-1.95-2.4,2.71,2.71,0,0,1,2.25-2.2,4.12,4.12,0,0,1,5,2c.26.43.47.87,1,.75C409,398.22,411.14,398.47,413.16,397.77ZM326,418.29a1.93,1.93,0,0,0,0-.68c-3.1-8.64-6.23-17.27-9.32-25.92a1.29,1.29,0,0,0-1.42-1c-2.08,0-4.15,0-6.23,0-1,0-1.34.41-1.65,1.3-2.82,8.07-5.71,16.1-8.55,24.16-.23.65-.75,1.26-.48,2.17a60.91,60.91,0,0,0,6.35.12c.8,0,1.08-.4,1.24-1.13.24-1.17.66-2.31.91-3.47s.84-1.91,2.28-1.8a44.35,44.35,0,0,0,6,0c1.42-.1,1.94.51,2.34,1.75.47,1.5.21,3.58,1.45,4.39s3.26.21,4.93.25A4.77,4.77,0,0,0,326,418.29Zm-222-13.7h0c0,4.16,0,8.31,0,12.46,0,1,.18,1.49,1.29,1.45,1.51-.06,3,0,4.55,0,.93,0,1.28-.36,1.14-1.31a40.34,40.34,0,0,1-.17-6.22c0-1.66,0-1.68,1.76-1.71a30.41,30.41,0,0,0,6.67-.41,8.29,8.29,0,0,0,6.44-5.47,11.43,11.43,0,0,0,.47-5,7.51,7.51,0,0,0-5.17-6.83,15.23,15.23,0,0,0-5.18-.83c-3.35-.05-6.7-.05-10.06-.06-1.73,0-1.72,0-1.72,1.68Q104.07,398.49,104.06,404.59Zm92.44-.11c0,4.23,0,8.47,0,12.7,0,.88.12,1.35,1.13,1.32,1.51-.06,3-.06,4.54,0,1.13,0,1.32-.52,1.26-1.47-.09-1.36-.09-2.72-.1-4.07,0-3.71,0-3.72,3.58-3.71a20.43,20.43,0,0,0,5-.45,8.34,8.34,0,0,0,6.69-7c1.1-5.89-1.92-10-7.86-10.86a17.38,17.38,0,0,0-1.91-.18c-3.67,0-7.34,0-11-.11-1,0-1.34.29-1.32,1.37C196.54,396.18,196.5,400.33,196.5,404.48Zm28.85.31h.06c0,2.79-.06,5.59,0,8.38.05,1.71-.9,4,.31,5s3.52.24,5.34.31h.24c1,.06,1.22-.44,1.12-1.33a65,65,0,0,1-.2-8.37c.05-5.59-.23-11.18.21-16.76.07-.95-.29-1.3-1.21-1.28-1.43,0-2.87,0-4.3,0-1.6,0-1.6.05-1.6,1.59Zm24.16-41.64h2.15c4.28,0,4.32-.07,3.91-4.4-.09-.93-.47-1.24-1.34-1.23-2.23,0-4.46,0-6.68,0-4.28,0-4.33.09-3.91,4.39.09.93.47,1.25,1.33,1.24C246.49,363.14,248,363.15,249.51,363.15Z"/><path class="cls-2" d="M320.72,303.74c-24.59-.4-43.91-1.22-63.21-2.48-15.38-1-30.76-2.14-46.13-3.33-14.58-1.13-29.14-2.44-43.71-3.61-11.39-.92-22.79-1.7-34.18-2.63q-24.12-1.95-48.31-3.12c-22.68-1.11-45.36-1.67-68.07-1.15-2.55.06-5.11.06-7.67.15-1.14.05-1.68-.21-1.83-1.51a257.92,257.92,0,0,1-1.55-41.4,260.66,260.66,0,0,1,3.41-31.9,244.83,244.83,0,0,1,15.18-52.59A251.2,251.2,0,0,1,163.67,23,250.36,250.36,0,0,1,263,5.48c40.11,1.3,77.89,11.39,113.06,30.85A249.13,249.13,0,0,1,469,125.11a245.58,245.58,0,0,1,31.21,78.17,250.35,250.35,0,0,1,4.95,36.28c.52,8.23.44,16.45.41,24.69a3.59,3.59,0,0,1-2.1,3.55A231.78,231.78,0,0,1,462.29,286a310.12,310.12,0,0,1-48.38,11.63A473.88,473.88,0,0,1,361,303C345.84,303.7,330.66,303.84,320.72,303.74ZM264.18,108.08a5,5,0,0,1-2.9-1c-1.75-.91-3.48-1.84-5.54-2.94A20.64,20.64,0,0,0,257.56,115a5.27,5.27,0,0,0,1.88,2.69c1.42,2.87,2.77,5.79,5,8.17h-2.14c-1.46,0-1.67.21-1.16,1.47a13,13,0,0,0,2.86,4.91,39.58,39.58,0,0,0,3.86,6.59,21.1,21.1,0,0,0,9.66,6.39c.48,1,1.83,1.14,2.17,2.27-.29.56-1.09.24-1.37.81-.07.37.2.59.41.82a17.41,17.41,0,0,0,11,6.17c6.89.9,13.74,2,20.73,1.46.1,0,.22.18.33.27-1.46,3.92-1.46,3.92-5.34,3.92H198.55c-3.63,0-3.63,0-5.27-3.17a6.57,6.57,0,0,1-.31-.83c1.72,0,3.37,0,5,0A117.42,117.42,0,0,0,215.83,155c4.22-.73,7.28-3.34,9.86-6.58-.5-.76-1.54-.41-1.82-1.33a12.92,12.92,0,0,1,4.21-2.57,18.62,18.62,0,0,0,10.25-9.24l1.87-3.62a11.25,11.25,0,0,0,2.94-5.84h-3.66c2.18-2.3,3.48-5.14,4.88-7.92,3.41-3.83,3.92-8.45,3.88-13.42a5.64,5.64,0,0,0-2.45,1c-1.55.81-3.08,1.67-4.64,2.48-.45.23-.94.72-1.49.12a45.77,45.77,0,0,0,4.28-7.4c.51-.16.72-.61,1-1a18.81,18.81,0,0,0,2.16-14.76,12,12,0,0,0-1.78-4.54c-.31.09-.51.09-.6.19-.43.46-.86.94-1.25,1.44a195.43,195.43,0,0,1-18.54,20.36,25.12,25.12,0,0,1-5,3.74,16,16,0,0,1-11.76,2,25.06,25.06,0,0,0-2.59-.46,7.46,7.46,0,0,0-7.29,3.19c-.57.77-1.08,1.59-1.7,2.32-2.58,3-5.46,5.6-9.5,6.46a3.61,3.61,0,0,1,0-1.19c1.09-2.57.1-4.68-1.52-6.57a9.12,9.12,0,0,0-6.81-3c-4.33-.22-8.46,2.64-9.2,6.51a21.86,21.86,0,0,1-1.49,4.53A84.32,84.32,0,0,0,161,147.92c-.26,3.76-.26,7.51-.22,11.27,0,1.65,0,1.65-1.69,1.7-.56,0-1.12,0-1.68,0-8.87,0-17.74,0-26.61,0-1.38,0-2,.39-2.29,1.74-.82,3.5-1.79,7-2.69,10.44-.13.51-.38,1.05,0,1.58,4.17.51,252.28.29,254-.24-.72-3.91-1.43-7.84-2.18-11.76-.32-1.7-.37-1.7-2.15-1.73H345c-2.34,0-2-.31-1.88-2a84.93,84.93,0,0,0-5.93-35.9c-1.12-2.79-2.7-5.44-3.06-8.53a4.77,4.77,0,0,0-.95-1.91c-2.39-3.55-7.62-4.88-11.81-3s-5.71,5.26-4.53,10.06a18.3,18.3,0,0,1-10.47-7.91c-2.45-3.68-5.68-4.88-9.92-3.87a15.72,15.72,0,0,1-5.69.46c-4.84-.61-8.67-3.07-12.08-6.34A194.08,194.08,0,0,1,260.6,82.09c-.53-.66-.9-1.52-1.92-1.85a10.27,10.27,0,0,0-1.79,4.33c-1.53,6-.67,11.54,3.29,16.45A52.74,52.74,0,0,0,264.18,108.08ZM364.85,177a9.58,9.58,0,0,0-3.34-.24H148.43c-2,0-2,0-1.68,2q2,11.46,4,22.89c.36,2,.4,2,2.44,2h18.22c2,0,2,0,2,1.94,0,3.67,0,7.35,0,11,0,2,0,2-2,2-5.75,0-11.5,0-17.25,0-.56,0-1.12,0-1.68,0-.93,0-1.55.2-1.59,1.27a14.13,14.13,0,0,1-.26,1.42c-1.29,8.36-2.63,16.72-3.85,25.1-.47,3.25-.95,3.07,2.71,3.07H361.93c.56,0,1.12,0,1.68,0,.91,0,1.29-.27,1.08-1.29-.45-2.27-.8-4.56-1.2-6.84-1.17-6.77-2.33-13.54-3.52-20.3-.43-2.43-.46-2.42-3-2.43h-1.2q-9.59,0-19.18,0c-2.72,0-2.53.2-2.54-2.64s0-5.76,0-8.63c0-4.39-.48-3.68,3.64-3.71,6.55,0,13.11,0,19.66,0,2.23,0,2.24,0,2.7-2.27.3-1.49.58-3,.88-4.47C362.2,190.24,363.51,183.67,364.85,177Zm-238,36.6H169c.64,0,1.28,0,1.92,0,.82,0,1.14-.38,1.13-1.17,0-1.28,0-2.56,0-3.84,0-.91-.34-1.33-1.26-1.28-.48,0-1,0-1.44,0H84.78c-.64,0-1.28,0-1.92,0a1.54,1.54,0,0,0-1.24.62c-.56.75-.62,4.08-.06,4.88a1.69,1.69,0,0,0,1.42.76h43.84Zm249.42-6.29H338.63c-3.5,0-3.5,0-3.49,3.55,0,3.07-.27,2.74,2.65,2.74h76.65c3.52,0,3.81-.3,3.68-3.82,0-.24,0-.48,0-.72a1.7,1.7,0,0,0-1.86-1.74h-40ZM332.75,250.8c-1.35,0-2.7,0-4.05,0-1,0-1.49.26-1.46,1.34.05,2.07,0,4.14,0,6.2,0,1,.34,1.43,1.38,1.41q4-.06,8.1,0c1,0,1.46-.24,1.43-1.32-.06-2.07,0-4.14,0-6.2,0-1-.29-1.47-1.35-1.43C335.45,250.85,334.1,250.81,332.75,250.8Zm-154.22,0c-1.36,0-2.72,0-4.08,0-.86,0-1.33.26-1.31,1.23q.06,3.22,0,6.47c0,.91.33,1.31,1.25,1.3,2.8,0,5.59,0,8.39,0,.86,0,1.33-.27,1.31-1.24q0-3.22,0-6.47c0-.9-.31-1.31-1.25-1.29C181.41,250.84,180,250.81,178.53,250.81Z"/><path class="cls-3" d="M405.9,352.41a5.53,5.53,0,0,0-1.1,2.37q-3.56,9.66-7.06,19.34a10.1,10.1,0,0,1-.61,1.56,1,1,0,0,1-2-.07,12.34,12.34,0,0,1-.56-1.58c-2.24-6.57-4.47-13.15-6.74-19.71-.24-.71-.22-1.6-1.2-2.18-.69,4.1-1.37,8.07-2,12.05-.57,3.38-1.19,6.76-1.69,10.16a1.54,1.54,0,0,1-1.89,1.54c-1.42-.07-2.84,0-4.12,0a1.79,1.79,0,0,1-.2-1.77q2.73-16.78,5.49-33.57c.16-.93-.11-2.12,1.51-2.24,3-.2,3.4-.1,4.08,1.68,2.61,6.87,5.2,13.74,7.82,20.6a3.75,3.75,0,0,0,1.2,2.18c.32-.78.62-1.48.88-2.19q3.68-10.12,7.36-20.25c.26-.72.24-1.77,1.19-1.91a9.53,9.53,0,0,1,3.8.06c.64.16.49.93.57,1.46q.9,5.79,1.75,11.6,1.62,11,3.22,22.05c0,.15.06.31.08.47.22,1.74.19,1.85-1.49,1.82-5.55-.11-4.27,1-5.12-4.34-.92-5.76-1.69-11.54-2.56-17.3A2.75,2.75,0,0,0,405.9,352.41Z"/><path class="cls-3" d="M115.59,376.82c-10.26.33-17.61-8.17-18.2-17.59A20,20,0,0,1,100,347.48c3.59-6,8.84-9.3,16-9.14a16.6,16.6,0,0,1,15.21,9.57c3.72,7.22,3.41,14.52-1.16,21.35A16.32,16.32,0,0,1,115.59,376.82Zm11.52-19.35a14.73,14.73,0,0,0-1.54-6.94c-4-8-14.59-7.34-18.59-2.37-4.73,5.87-4,15.22,1.8,20.12a10.76,10.76,0,0,0,15.35-1.66A14.4,14.4,0,0,0,127.11,357.47Z"/><path class="cls-3" d="M351.07,376.83c-7.39,0-12.62-3-15.9-8.9-4.06-7.3-3.85-14.72.74-21.77a17.61,17.61,0,0,1,29.61.39A21,21,0,0,1,365.3,369C361.76,374.18,356.88,376.9,351.07,376.83Zm11.09-18.61a14.9,14.9,0,0,0-1.45-7.54,10.72,10.72,0,0,0-10.23-6.21,10.35,10.35,0,0,0-10,6.18c-2.51,5.23-2,10.31,1.17,15.21a10.88,10.88,0,0,0,19-1.52A14.64,14.64,0,0,0,362.16,358.22Z"/><path class="cls-3" d="M296.49,357.58c0-5.43,0-10.87,0-16.3,0-2,0-2,2-2,2.88,0,5.76,0,8.63,0,9.3.15,16.2,6.5,17.15,15.75.64,6.31-.83,11.91-5.57,16.38a15.62,15.62,0,0,1-10.37,4.37c-3.27.12-6.54.08-9.82.08-2,0-2,0-2-2C296.48,368.45,296.49,363,296.49,357.58Zm6.23,0c0,3.67,0,7.34,0,11,0,1.65.14,1.79,1.79,1.72a30.35,30.35,0,0,0,4.75-.48c4.75-1,7.51-3.93,8.37-8.68a19.51,19.51,0,0,0,0-6.9c-.85-4.85-3.61-7.82-8.5-8.83a26.36,26.36,0,0,0-4.51-.41c-1.86-.06-1.91,0-1.92,1.81C302.7,350.37,302.72,354,302.72,357.55Z"/><path class="cls-3" d="M206.54,357.58c0-5.43,0-10.86,0-16.29,0-2,0-2,2-2,2.71,0,5.42,0,8.14,0,10-.14,17.2,7.15,17.74,17,.31,5.68-1.21,10.75-5.36,14.84a15.72,15.72,0,0,1-10.7,4.71c-3.35.13-6.7.09-10.06.07-1.68,0-1.72-.05-1.73-1.74C206.53,368.61,206.54,363.1,206.54,357.58Zm6.24-.16c0,3.67,0,7.35,0,11,0,1.79.13,1.91,1.93,1.81a29.25,29.25,0,0,0,4.75-.52,9.89,9.89,0,0,0,8.12-8.39,19.34,19.34,0,0,0,0-7.39c-.88-4.61-3.58-7.52-8.27-8.52a24.68,24.68,0,0,0-4.27-.46c-2.27-.08-2.28-.06-2.29,2.14C212.77,350.55,212.78,354,212.78,357.42Z"/><path class="cls-3" d="M160.56,356.28a10.63,10.63,0,0,1,4.27,15,9.8,9.8,0,0,1-8.07,4.47c-4,.26-8,.1-12,.18-1.22,0-1.46-.58-1.43-1.62,0-1.84,0-3.67,0-5.51V342.17c0-.56,0-1.12,0-1.68,0-.75.24-1.23,1.09-1.2,3.9.13,7.82-.41,11.69.43,4.3.93,6.58,3.56,7,8C163.47,351.4,163,353.11,160.56,356.28Zm-8,14.66a10.26,10.26,0,0,0,4-.57,5.33,5.33,0,0,0,3.52-5.63,4.83,4.83,0,0,0-3.9-4.79,19.81,19.81,0,0,0-5.21-.48c-1,0-1.4.4-1.39,1.41,0,2.86,0,5.73,0,8.59,0,1.18.47,1.58,1.57,1.47C151.56,370.91,152,370.94,152.6,370.94Zm-3-21.38c0,1.43,0,2.86,0,4.28,0,.59.1,1.05.83,1.2,4.33.94,7.27-1.53,7-5.94a9.85,9.85,0,0,0-.18-1.42,4.17,4.17,0,0,0-3.71-3.5c-.94-.13-1.9-.05-2.85-.09s-1.11.42-1.1,1.18C149.64,346.7,149.63,348.13,149.63,349.56Z"/><path class="cls-4" d="M268,404.3c0-4.08,0-8.15,0-12.22,0-.77-.13-1.46,1-1.41,4.46.23,8.94-.22,13.39.35,5.71.73,9.16,4,10.25,9.77a18.36,18.36,0,0,1-.5,9.22c-1.6,5-5.08,7.91-10.29,8.3-4.21.31-8.46.14-12.69.22-1,0-1.17-.4-1.16-1.29,0-4.32,0-8.63,0-12.94Zm6.77.19c0,2.24,0,4.48,0,6.72,0,1,.25,1.5,1.34,1.45,1.27-.07,2.56,0,3.83-.07a6,6,0,0,0,5.63-4.44,12.54,12.54,0,0,0,0-7.33,5.22,5.22,0,0,0-4.85-4c-1.51-.13-3-.06-4.55-.15-1.22-.08-1.47.53-1.44,1.59C274.79,400.34,274.76,402.42,274.76,404.49Z"/><path class="cls-4" d="M332.29,404.63c0-4.15,0-8.31,0-12.46,0-.91,0-1.56,1.2-1.5,4.31.23,8.62-.2,12.92.32,5.94.71,9.35,3.86,10.53,9.74a18.36,18.36,0,0,1-.46,9.22c-1.51,4.82-4.79,7.71-9.78,8.32-4.43.54-8.93.12-13.39.25-1.12,0-1-.7-1-1.44,0-4.15,0-8.3,0-12.45Zm6.76-.17c0,1.12-.06,2.23,0,3.34.11,1.56-.77,3.7.43,4.53,1.39.95,3.54.41,5.34.18a5.78,5.78,0,0,0,5-4.23,12.08,12.08,0,0,0,.05-7.52,5.26,5.26,0,0,0-4.86-3.95c-1.5-.12-3-.05-4.53-.14-1.2-.07-1.48.51-1.45,1.58C339.09,400.32,339.06,402.39,339.05,404.46Z"/><path class="cls-4" d="M150.45,405.34c3.76,3.67,4.47,8.65,7,13.14-2.58,0-4.73,0-6.87,0-1,0-1.18-.59-1.38-1.33a40.4,40.4,0,0,0-2.28-6.29,5.43,5.43,0,0,0-6.61-2.84c-.76.24-.64.83-.64,1.36a59.19,59.19,0,0,0,.21,7.65c.14,1-.16,1.49-1.24,1.45-1.76-.06-3.89.55-5.17-.24-1.52-.93-.39-3.2-.42-4.87-.14-7-.11-14.05-.15-21.08,0-1.58,0-1.61,1.55-1.61q5.87,0,11.73.06a15.5,15.5,0,0,1,2.14.21c5.56.89,8.25,6.07,5.84,11.16A6.85,6.85,0,0,1,150.45,405.34Zm-7.34-8.9v0c-.72,0-1.43,0-2.15,0s-1.26.25-1.35,1.21c-.41,4.58-.3,4.74,4.37,4.64a13.72,13.72,0,0,0,1.43-.09,2.63,2.63,0,0,0,2.47-3c0-1.72-.78-2.56-2.62-2.76C144.55,396.38,143.83,396.44,143.11,396.44Z"/><path class="cls-4" d="M189.53,404.45a15.51,15.51,0,0,1-1.61,7.64,12,12,0,0,1-10.21,6.9c-8.34.67-13.68-3.74-14.84-12.07a18.08,18.08,0,0,1,.4-6.88c1.66-6.64,7.1-10.39,14.16-9.83a12.61,12.61,0,0,1,12,11.85C189.5,402.85,189.5,403.65,189.53,404.45Zm-19.83.36a10.64,10.64,0,0,0,1,4.88,5.73,5.73,0,0,0,5.47,3.57,5.52,5.52,0,0,0,5.45-3.58,12.48,12.48,0,0,0,.06-10,5.6,5.6,0,0,0-5.39-3.69,5.78,5.78,0,0,0-5.65,3.69A11.42,11.42,0,0,0,169.7,404.81Z"/><path class="cls-4" d="M259,407.37c-3.38-.25-6.65-.24-9.92-.21-2,0-2.05,0-2,1.95,0,4.24-.55,3.52,3.51,3.56,3,0,5.91,0,8.86-.05,1.52,0,1.53,0,1.57,1.58,0,1,0,2.07,0,3.11s-.31,1.32-1.38,1.3c-4.47-.11-8.95-.1-13.42-.12-1.52,0-3,0-4.55,0-1,0-1.41-.21-1.39-1.33q.3-12.58,0-25.17c0-1.06.34-1.38,1.37-1.36,5.91.09,11.82.17,17.73-.05.75,0,1.26.13,1.23,1a26,26,0,0,1-.21,5.16c-3.62-.3-7.2-.22-10.78-.23-.55,0-1.12,0-1.67,0a.85.85,0,0,0-.87.93c0,.23,0,.47,0,.71,0,3.54-.35,3.13,3,3.15,2.95,0,5.9,0,9,0A23.41,23.41,0,0,1,259,407.37Z"/><path class="cls-4" d="M364.39,405.31c-.13-4.39.22-8.79-.26-13.16-.13-1.24.37-1.5,1.47-1.48,4.63.05,9.26.05,13.89.06a11.37,11.37,0,0,1,1.43,0c1.16.16,2.85-.75,3.36.28.76,1.52.33,3.44.18,5.18-.07.78-.84.57-1.36.53-3.11-.24-6.22-.15-9.33-.15-2.95,0-2.8-.36-2.8,2.89,0,1.89,0,1.93,2,1.93,2.79,0,5.59-.06,8.38-.11,1.65,0,1.7,0,1.71,1.45s.58,3.19-.25,4.19-2.7.18-4.1.23c-2.15.08-4.31,0-6.46,0-.87,0-1.25.31-1.34,1.24-.42,4.16-.33,4.3,3.78,4.29l8.61-.06c1.55,0,1.56,0,1.61,1.58,0,1,0,2.08,0,3.12,0,.85-.17,1.34-1.19,1.29-6.06-.25-12.13-.11-18.2-.07-1.1,0-1.57-.25-1.43-1.5C364.58,413.14,364.28,409.22,364.39,405.31Z"/><path class="cls-3" d="M176.49,357.62c0-5.52,0-11,0-16.54,0-1.73.05-1.78,1.7-1.79,5.19,0,10.38,0,15.57,0,1.2,0,1.75.29,1.73,1.6-.05,4.58.24,3.63-3.43,3.7-2.64.05-5.27,0-7.91,0-1,0-1.46.31-1.44,1.37.05,2.23.06,4.47,0,6.71,0,1.2.53,1.48,1.6,1.46,3,0,5.91,0,8.87,0,1.83,0,1.87,0,1.87,1.86,0,4,.32,3.35-3.23,3.39q-3.84,0-7.67,0c-1,0-1.45.3-1.44,1.37.05,2.8.06,5.59,0,8.39,0,1.19.48,1.51,1.56,1.5,3,0,6.07,0,9.11,0,2.06,0,2.06,0,2.09,2.16,0,.16,0,.32,0,.48,0,2.62,0,2.62-2.58,2.62H178.76c-2.24,0-2.26,0-2.27-2.19C176.48,368.32,176.49,363,176.49,357.62Z"/><path class="cls-3" d="M266.56,357.57c0-5.44,0-10.87,0-16.31,0-1.94,0-2,2-2,5,0,10.06,0,15.1,0,1.71,0,1.76,0,1.76,1.71,0,4.32.44,3.49-3.52,3.56-2.55,0-5.11,0-7.67,0-1,0-1.47.28-1.44,1.36q.08,3.34,0,6.71c0,1.18.47,1.5,1.57,1.48,2.88-.05,5.75,0,8.63,0,2,0,2,0,2,1.93,0,4,.25,3.29-3.3,3.33-2.48,0-5,.06-7.43,0-1.15,0-1.54.39-1.51,1.53.06,2.72.08,5.44,0,8.15,0,1.32.53,1.61,1.7,1.59,3,0,6.07,0,9.11,0,1.8,0,1.85.05,1.84,1.9,0,3.95.44,3.33-3.23,3.36-4.63,0-9.27,0-13.9,0-1.67,0-1.71-.06-1.72-1.76C266.54,368.6,266.56,363.08,266.56,357.57Z"/><path class="cls-4" d="M413.16,397.77c-2,.7-4.13.45-6.14.86-.58.12-.79-.32-1-.75a4.12,4.12,0,0,0-5-2,2.71,2.71,0,0,0-2.25,2.2,2.4,2.4,0,0,0,1.95,2.4c1.6.49,3.26.78,4.88,1.18a17.12,17.12,0,0,1,4.28,1.49,7.46,7.46,0,0,1,3.95,7.15c-.06,3.16-1.19,5.87-4.18,7.28a16.11,16.11,0,0,1-14.11,0c-2.59-1.2-3.78-3.53-4.32-6.26-.16-.83.08-1.22.88-1.3l5-.48c.55-.05.79.24,1,.75,1.35,2.81,2.91,3.58,5.89,3,1.66-.31,2.6-1.23,2.67-2.6s-.56-2.24-2.17-2.73c-2.06-.62-4.16-1.1-6.25-1.65a9.12,9.12,0,0,1-3.64-1.72,7.74,7.74,0,0,1,.87-12.64,13.8,13.8,0,0,1,13.75-.17A7.47,7.47,0,0,1,413.16,397.77Z"/><path class="cls-4" d="M326,418.29a4.77,4.77,0,0,1-2.17.18c-1.67,0-3.63.6-4.93-.25s-1-2.89-1.45-4.39c-.4-1.24-.92-1.85-2.34-1.75a44.35,44.35,0,0,1-6,0c-1.44-.11-2,.53-2.28,1.8s-.67,2.3-.91,3.47c-.16.73-.44,1.15-1.24,1.13a60.91,60.91,0,0,1-6.35-.12c-.27-.91.25-1.52.48-2.17,2.84-8.06,5.73-16.09,8.55-24.16.31-.89.67-1.33,1.65-1.3,2.08,0,4.15,0,6.23,0a1.29,1.29,0,0,1,1.42,1c3.09,8.65,6.22,17.28,9.32,25.92A1.93,1.93,0,0,1,326,418.29Zm-16.91-12h6.05c-1-3.12-1.91-6-2.84-9l-.45,0Z"/><path class="cls-4" d="M104.06,404.59q0-6.1,0-12.22c0-1.66,0-1.68,1.72-1.68,3.36,0,6.71,0,10.06.06a15.23,15.23,0,0,1,5.18.83,7.51,7.51,0,0,1,5.17,6.83,11.43,11.43,0,0,1-.47,5,8.29,8.29,0,0,1-6.44,5.47,30.41,30.41,0,0,1-6.67.41c-1.72,0-1.76.05-1.76,1.71a40.34,40.34,0,0,0,.17,6.22c.14.95-.21,1.33-1.14,1.31-1.52,0-3-.05-4.55,0-1.11,0-1.3-.47-1.29-1.45,0-4.15,0-8.3,0-12.46Zm6.76-4.72c.09,4.25-.64,3.59,3.64,3.66a13.27,13.27,0,0,0,1.67,0,3.3,3.3,0,0,0,3.27-3.64c0-2-1.11-3.15-3.26-3.38a15.19,15.19,0,0,0-1.91,0C110.31,396.5,110.88,395.91,110.82,399.87Z"/><path class="cls-4" d="M196.5,404.48c0-4.15,0-8.3,0-12.45,0-1.08.28-1.39,1.32-1.37,3.67.07,7.34.07,11,.11a17.38,17.38,0,0,1,1.91.18c5.94.82,9,5,7.86,10.86a8.34,8.34,0,0,1-6.69,7,20.43,20.43,0,0,1-5,.45c-3.6,0-3.61,0-3.58,3.71,0,1.35,0,2.71.1,4.07.06,1-.13,1.51-1.26,1.47-1.51-.06-3-.06-4.54,0-1,0-1.14-.44-1.13-1.32C196.53,413,196.5,408.71,196.5,404.48Zm6.8-4.6c0,3.67,0,3.68,3.63,3.65a10.79,10.79,0,0,0,2.13-.11,3.31,3.31,0,0,0,2.81-3.58,3.16,3.16,0,0,0-2.83-3.29,14.54,14.54,0,0,0-2.38-.1C203.3,396.43,203.3,396.44,203.3,399.88Z"/><path class="cls-4" d="M225.35,404.79V392.34c0-1.54,0-1.56,1.6-1.59,1.43,0,2.87,0,4.3,0,.92,0,1.28.33,1.21,1.28-.44,5.58-.16,11.17-.21,16.76a65,65,0,0,0,.2,8.37c.1.89-.15,1.39-1.12,1.33h-.24c-1.82-.07-4.09.72-5.34-.31s-.26-3.29-.31-5c-.09-2.79,0-5.59,0-8.38Z"/><path class="cls-3" d="M249.51,363.15c-1.51,0-3,0-4.54,0-.86,0-1.24-.31-1.33-1.24-.42-4.3-.37-4.39,3.91-4.39,2.22,0,4.45,0,6.68,0,.87,0,1.25.3,1.34,1.23.41,4.33.37,4.4-3.91,4.4h-2.15Z"/><path class="cls-5" d="M364.85,177c-1.34,6.72-2.65,13.29-4,19.86-.3,1.49-.58,3-.88,4.47-.46,2.26-.47,2.27-2.7,2.27-6.55,0-13.11,0-19.66,0-4.12,0-3.61-.68-3.64,3.71,0,2.87,0,5.75,0,8.63s-.18,2.64,2.54,2.64q9.6,0,19.18,0h1.2c2.58,0,2.61,0,3,2.43,1.19,6.76,2.35,13.53,3.52,20.3.4,2.28.75,4.57,1.2,6.84.21,1-.17,1.31-1.08,1.29-.56,0-1.12,0-1.68,0H149.56c-3.66,0-3.18.18-2.71-3.07,1.22-8.38,2.56-16.74,3.85-25.1a14.13,14.13,0,0,0,.26-1.42c0-1.07.66-1.32,1.59-1.27.56,0,1.12,0,1.68,0,5.75,0,11.5,0,17.25,0,2,0,2,0,2-2,0-3.68,0-7.36,0-11,0-1.91,0-1.94-2-1.94H153.21c-2,0-2.08,0-2.44-2q-2-11.45-4-22.89c-.34-1.95-.28-2,1.68-2H361.51A9.58,9.58,0,0,1,364.85,177Zm-111.41,41.6h72.13c.64,0,1.29-.05,1.92,0,1.28.14,1.63-.45,1.61-1.66-.06-3.51,0-7,0-10.55,0-3.22.21-2.8-2.84-2.8q-72.49,0-145,0c-.56,0-1.12,0-1.68,0-.95-.07-1.24.41-1.23,1.3q0,6.22,0,12.46c0,.95.41,1.28,1.3,1.24.71,0,1.43,0,2.15,0Z"/><path class="cls-1" d="M316.82,119.6c-1.18-4.8.37-8.23,4.53-10.06s9.42-.51,11.81,3a4.77,4.77,0,0,1,.95,1.91c.36,3.09,1.94,5.74,3.06,8.53a84.93,84.93,0,0,1,5.93,35.9c-.08,1.66-.46,2,1.88,2h30.44c1.78,0,1.83,0,2.15,1.73.75,3.92,1.46,7.85,2.18,11.76-1.73.53-249.84.75-254,.24-.34-.53-.09-1.07,0-1.58.9-3.48,1.87-6.94,2.69-10.44.32-1.35.91-1.75,2.29-1.74,8.87.06,17.74,0,26.61,0,.56,0,1.12,0,1.68,0,1.7,0,1.71,0,1.69-1.7,0-3.76,0-7.51.22-11.27a84.32,84.32,0,0,1,7.15-28.18,21.86,21.86,0,0,0,1.49-4.53c.74-3.87,4.87-6.73,9.2-6.51a9.12,9.12,0,0,1,6.81,3c1.62,1.89,2.61,4,1.52,6.57a3.61,3.61,0,0,0,0,1.19c-2.43,4.5-6.43,5.58-11.15,5,0,1.42,1,1.41,1.81,1.53a14.71,14.71,0,0,0,9.6-2.27,21.41,21.41,0,0,0,7.21-6.89,7.33,7.33,0,0,1,5.87-3.66,16.17,16.17,0,0,1,4,.36,16.27,16.27,0,0,0,5.22.41,20.39,20.39,0,0,0,11.73-6A192.91,192.91,0,0,0,240.3,87.29c1.31-1.68,1.66-1.61,2.48.35a21.51,21.51,0,0,1,1.27,10.83c-.07.71-.4,1.4-.11,2.12a45.77,45.77,0,0,1-4.28,7.4,43.28,43.28,0,0,1-8.77,7.94c-1,.73-2.26,1.18-3.07,2.2l-1,.46-.16.06.14-.08,1-.46a4.57,4.57,0,0,0,2.05-.61c4-2,8.07-3.89,12-6.08.63-.35,1.26-.7,1.9-1,.85-.43,1.2,0,1.21.8,0,.64-.08,1.28-.13,1.91-.14,1.58-.28,3.17-.43,4.75-1.4,2.78-2.7,5.62-4.88,7.92a30,30,0,0,1-10.83,6.39,5.9,5.9,0,0,0,2.77.1c2.94-.11,5.81-1,8.78-.65l-1.87,3.62a18.62,18.62,0,0,1-10.25,9.24,12.92,12.92,0,0,0-4.21,2.57c.28.92,1.32.57,1.82,1.33-2.58,3.24-5.64,5.85-9.86,6.58A117.42,117.42,0,0,1,198,156.89c-1.64,0-3.29,0-5,0a6.57,6.57,0,0,0,.31.83c1.64,3.17,1.64,3.17,5.27,3.17H305.43c3.88,0,3.88,0,5.34-3.92-.11-.09-.23-.27-.33-.27-7,.58-13.84-.56-20.73-1.46a17.41,17.41,0,0,1-11-6.17c-.21-.23-.48-.45-.41-.82.28-.57,1.08-.25,1.37-.81A12.23,12.23,0,0,0,284,146.2l-6.49-1a21.1,21.1,0,0,1-9.66-6.39,39.58,39.58,0,0,1-3.86-6.59c1-1.13,2.21-.59,3.35-.49,2.51.23,5,.52,7.51.79a40.39,40.39,0,0,1-10.42-6.68c-2.22-2.38-3.57-5.3-5-8.17a22,22,0,0,0-.34-4.29c-.09-1-.41-2.18.29-3.15a3.66,3.66,0,0,1,1.67.65c3.83,2.17,7.78,4.1,11.73,6a4.36,4.36,0,0,0,2.48.75c.1.1.08.46.37.17l-.4-.14c-.63-1-1.75-1.34-2.64-2a50.52,50.52,0,0,1-8.42-7.58,52.74,52.74,0,0,1-4-7.06,9.48,9.48,0,0,0-.13-1.41,19.36,19.36,0,0,1,.76-11.07c.31-.88.36-2.14,1.36-2.35s1.32,1,1.84,1.65a196.87,196.87,0,0,0,18,19.82c5.11,4.88,10.92,7.74,18.24,5.78a9.48,9.48,0,0,1,2.14-.22,7.23,7.23,0,0,1,6.43,3c.48.63.91,1.31,1.4,1.94,3.28,4.15,7.33,7.06,12.69,7.88a11.19,11.19,0,0,0,4-.2c.51-.11.94-.4.85-1s-.6-.37-1-.34C322.48,125,319.07,123.49,316.82,119.6Z"/><path class="cls-5" d="M126.82,213.55H83a1.69,1.69,0,0,1-1.42-.76c-.56-.8-.5-4.13.06-4.88a1.54,1.54,0,0,1,1.24-.62c.64,0,1.28,0,1.92,0h84.56c.48,0,1,0,1.44,0,.92,0,1.29.37,1.26,1.28,0,1.28,0,2.56,0,3.84,0,.79-.31,1.19-1.13,1.17-.64,0-1.28,0-1.92,0Z"/><path class="cls-5" d="M376.24,207.26h40A1.7,1.7,0,0,1,418.1,209c0,.24,0,.48,0,.72.13,3.52-.16,3.82-3.68,3.82H337.79c-2.92,0-2.64.33-2.65-2.74,0-3.55,0-3.55,3.49-3.55Z"/><path class="cls-6" d="M243.94,100.59c-.29-.72,0-1.41.11-2.12a21.51,21.51,0,0,0-1.27-10.83c-.82-2-1.17-2-2.48-.35A192.91,192.91,0,0,1,221.42,108a20.39,20.39,0,0,1-11.73,6,16.27,16.27,0,0,1-5.22-.41,16.17,16.17,0,0,0-4-.36,7.33,7.33,0,0,0-5.87,3.66,21.41,21.41,0,0,1-7.21,6.89,14.71,14.71,0,0,1-9.6,2.27c-.83-.12-1.84-.11-1.81-1.53,4.72.56,8.72-.52,11.15-5,4-.86,6.92-3.45,9.5-6.46.62-.73,1.13-1.55,1.7-2.32a7.46,7.46,0,0,1,7.29-3.19,25.06,25.06,0,0,1,2.59.46,16,16,0,0,0,11.76-2,25.12,25.12,0,0,0,5-3.74A195.43,195.43,0,0,0,243.43,81.9c.39-.5.82-1,1.25-1.44.09-.1.29-.1.6-.19a12,12,0,0,1,1.78,4.54,18.81,18.81,0,0,1-2.16,14.76C244.66,100,244.45,100.43,243.94,100.59Z"/><path class="cls-6" d="M316.82,119.6c2.25,3.89,5.66,5.41,10.05,5,.37,0,.88-.21,1,.34s-.34.85-.85,1a11.19,11.19,0,0,1-4,.2c-5.36-.82-9.41-3.73-12.69-7.88-.49-.63-.92-1.31-1.4-1.94a7.23,7.23,0,0,0-6.43-3,9.48,9.48,0,0,0-2.14.22c-7.32,2-13.13-.9-18.24-5.78a196.87,196.87,0,0,1-18-19.82c-.52-.66-.89-1.86-1.84-1.65s-1.05,1.47-1.36,2.35a19.36,19.36,0,0,0-.76,11.07,9.48,9.48,0,0,1,.13,1.41c-4-4.91-4.82-10.46-3.29-16.45a10.27,10.27,0,0,1,1.79-4.33c1,.33,1.39,1.19,1.92,1.85a194.08,194.08,0,0,0,18.06,19.85c3.41,3.27,7.24,5.73,12.08,6.34a15.72,15.72,0,0,0,5.69-.46c4.24-1,7.47.19,9.92,3.87A18.3,18.3,0,0,0,316.82,119.6Z"/><path class="cls-5" d="M332.75,250.8c1.35,0,2.7,0,4.05,0,1.06,0,1.38.43,1.35,1.43,0,2.06-.06,4.13,0,6.2,0,1.08-.46,1.33-1.43,1.32q-4.05-.06-8.1,0c-1,0-1.4-.41-1.38-1.41,0-2.06.05-4.13,0-6.2,0-1.08.5-1.36,1.46-1.34C330.05,250.83,331.4,250.8,332.75,250.8Z"/><path class="cls-5" d="M178.53,250.81c1.44,0,2.88,0,4.31,0,.94,0,1.27.39,1.25,1.29q0,3.24,0,6.47c0,1-.45,1.25-1.31,1.24-2.8,0-5.59,0-8.39,0-.92,0-1.26-.39-1.25-1.3q.06-3.24,0-6.47c0-1,.45-1.25,1.31-1.23C175.81,250.83,177.17,250.81,178.53,250.81Z"/><path class="cls-6" d="M227.82,118.13c.81-1,2.05-1.47,3.07-2.2a43.28,43.28,0,0,0,8.77-7.94c.55.6,1,.11,1.49-.12,1.56-.81,3.09-1.67,4.64-2.48a5.64,5.64,0,0,1,2.45-1c0,5-.47,9.59-3.88,13.42.15-1.58.29-3.17.43-4.75.05-.63.13-1.27.13-1.91,0-.81-.36-1.23-1.21-.8-.64.33-1.27.68-1.9,1-3.9,2.19-7.94,4.12-12,6.08a4.57,4.57,0,0,1-2.05.61Z"/><path class="cls-6" d="M264.18,108.08a50.52,50.52,0,0,0,8.42,7.58c.89.65,2,1,2.64,2l0,0a4.36,4.36,0,0,1-2.48-.75c-4-1.92-7.9-3.85-11.73-6a3.66,3.66,0,0,0-1.67-.65c-.7,1-.38,2.1-.29,3.15a22,22,0,0,1,.34,4.29,5.27,5.27,0,0,1-1.88-2.69,20.64,20.64,0,0,1-1.82-10.78c2.06,1.1,3.79,2,5.54,2.94A5,5,0,0,0,264.18,108.08Z"/><path class="cls-6" d="M264.43,125.81a40.39,40.39,0,0,0,10.42,6.68c-2.5-.27-5-.56-7.51-.79-1.14-.1-2.38-.64-3.35.49a13,13,0,0,1-2.86-4.91c-.51-1.26-.3-1.46,1.16-1.47Z"/><path class="cls-6" d="M240.2,131.61c-3-.36-5.84.54-8.78.65a5.9,5.9,0,0,1-2.77-.1,30,30,0,0,0,10.83-6.39h3.66A11.25,11.25,0,0,1,240.2,131.61Z"/><path class="cls-6" d="M277.51,145.17l6.49,1a12.23,12.23,0,0,1-4.32,1.24C279.34,146.31,278,146.16,277.51,145.17Z"/><path class="cls-1" d="M127.11,357.47a14.4,14.4,0,0,1-3,9.15,10.76,10.76,0,0,1-15.35,1.66c-5.76-4.9-6.53-14.25-1.8-20.12,4-5,14.54-5.67,18.59,2.37A14.73,14.73,0,0,1,127.11,357.47Z"/><path class="cls-1" d="M362.16,358.22a14.64,14.64,0,0,1-1.5,6.12,10.88,10.88,0,0,1-19,1.52c-3.2-4.9-3.68-10-1.17-15.21a10.35,10.35,0,0,1,10-6.18,10.72,10.72,0,0,1,10.23,6.21A14.9,14.9,0,0,1,362.16,358.22Z"/><path class="cls-5" d="M302.72,357.55c0-3.59,0-7.18,0-10.77,0-1.82.06-1.87,1.92-1.81a26.36,26.36,0,0,1,4.51.41c4.89,1,7.65,4,8.5,8.83a19.51,19.51,0,0,1,0,6.9c-.86,4.75-3.62,7.66-8.37,8.68a30.35,30.35,0,0,1-4.75.48c-1.65.07-1.78-.07-1.79-1.72C302.7,364.89,302.72,361.22,302.72,357.55Z"/><path class="cls-1" d="M212.78,357.42c0-3.44,0-6.87,0-10.31,0-2.2,0-2.22,2.29-2.14a24.68,24.68,0,0,1,4.27.46c4.69,1,7.39,3.91,8.27,8.52a19.34,19.34,0,0,1,0,7.39,9.89,9.89,0,0,1-8.12,8.39,29.25,29.25,0,0,1-4.75.52c-1.8.1-1.91,0-1.93-1.81C212.76,364.77,212.78,361.09,212.78,357.42Z"/><path class="cls-5" d="M152.6,370.94c-.64,0-1,0-1.43,0-1.1.11-1.59-.29-1.57-1.47.06-2.86.05-5.73,0-8.59,0-1,.36-1.42,1.39-1.41a19.81,19.81,0,0,1,5.21.48,4.83,4.83,0,0,1,3.9,4.79,5.33,5.33,0,0,1-3.52,5.63A10.26,10.26,0,0,1,152.6,370.94Z"/><path class="cls-5" d="M149.63,349.56c0-1.43,0-2.86,0-4.29,0-.76.26-1.21,1.1-1.18s1.91,0,2.85.09a4.17,4.17,0,0,1,3.71,3.5,9.85,9.85,0,0,1,.18,1.42c.27,4.41-2.67,6.88-7,5.94-.73-.15-.83-.61-.83-1.2C149.62,352.42,149.63,351,149.63,349.56Z"/><path class="cls-5" d="M274.76,404.49c0-2.07,0-4.15,0-6.23,0-1.06.22-1.67,1.44-1.59,1.52.09,3,0,4.55.15a5.22,5.22,0,0,1,4.85,4,12.54,12.54,0,0,1,0,7.33,6,6,0,0,1-5.63,4.44c-1.27.11-2.56,0-3.83.07-1.09,0-1.36-.48-1.34-1.45C274.78,409,274.76,406.73,274.76,404.49Z"/><path class="cls-5" d="M339.05,404.46c0-2.07,0-4.14,0-6.21,0-1.07.25-1.65,1.45-1.58,1.51.09,3,0,4.53.14a5.26,5.26,0,0,1,4.86,3.95,12.08,12.08,0,0,1-.05,7.52,5.78,5.78,0,0,1-5,4.23c-1.8.23-3.95.77-5.34-.18-1.2-.83-.32-3-.43-4.53C339,406.69,339.05,405.58,339.05,404.46Z"/><path class="cls-5" d="M143.11,396.44c.72,0,1.44-.06,2.15,0,1.84.2,2.62,1,2.62,2.76a2.63,2.63,0,0,1-2.47,3,13.72,13.72,0,0,1-1.43.09c-4.67.1-4.78-.06-4.37-4.64.09-1,.49-1.24,1.35-1.21s1.43,0,2.15,0Z"/><path class="cls-5" d="M169.7,404.81a11.42,11.42,0,0,1,.92-5.15,5.78,5.78,0,0,1,5.65-3.69,5.6,5.6,0,0,1,5.39,3.69,12.48,12.48,0,0,1-.06,10,5.52,5.52,0,0,1-5.45,3.58,5.73,5.73,0,0,1-5.47-3.57A10.64,10.64,0,0,1,169.7,404.81Z"/><path class="cls-5" d="M309.12,406.29l2.76-8.92.45,0c.93,2.92,1.85,5.83,2.84,9Z"/><path class="cls-5" d="M110.82,399.87c.06-4-.51-3.37,3.41-3.42a15.19,15.19,0,0,1,1.91,0c2.15.23,3.22,1.36,3.26,3.38a3.3,3.3,0,0,1-3.27,3.64,13.27,13.27,0,0,1-1.67,0C110.18,403.46,110.91,404.12,110.82,399.87Z"/><path class="cls-5" d="M203.3,399.88c0-3.44,0-3.45,3.36-3.43a14.54,14.54,0,0,1,2.38.1,3.16,3.16,0,0,1,2.83,3.29,3.31,3.31,0,0,1-2.81,3.58,10.79,10.79,0,0,1-2.13.11C203.3,403.56,203.3,403.55,203.3,399.88Z"/><path class="cls-4" d="M253.44,218.55H181.78c-.72,0-1.44,0-2.15,0-.89,0-1.3-.29-1.3-1.24q0-6.23,0-12.46c0-.89.28-1.37,1.23-1.3.56,0,1.12,0,1.68,0q72.5,0,145,0c3.05,0,2.83-.42,2.84,2.8,0,3.52,0,7,0,10.55,0,1.21-.33,1.8-1.61,1.66-.63-.06-1.28,0-1.92,0Zm.5-11.28H183.23c-3.47,0-3.48,0-3.46,3.35s-.33,2.92,2.94,2.92q70.95,0,141.9,0c3.9,0,3.34.55,3.36-3.48,0-3,.41-2.79-2.84-2.79Q289.53,207.26,253.94,207.27Z"/><path class="cls-6" d="M275.24,117.65l.4.14c-.29.29-.27-.07-.37-.17Z"/><path class="cls-6" d="M226.79,118.57l-.14.08.16-.06Z"/><path class="cls-6" d="M227.79,118.11l-1,.46,0,0,1-.46Z"/><path class="cls-5" d="M253.94,207.27q35.6,0,71.19,0c3.25,0,2.85-.25,2.84,2.79,0,4,.54,3.48-3.36,3.48q-71,0-141.9,0c-3.27,0-2.92.43-2.94-2.92s0-3.35,3.46-3.35Z"/></g></g></svg>