<svg xmlns="http://www.w3.org/2000/svg" viewBox="0 0 815.79 247.64"><defs><style>.cls-1{fill:#91009c;}.cls-2{fill:#fefefe;}.cls-3{fill:#f5c511;}.cls-4{fill:#f5c412;}.cls-5{fill:#fdfcfd;}.cls-6{fill:#fcfbfc;}.cls-7{fill:#fcfbfd;}.cls-8{fill:#fbf7fb;}.cls-9{fill:#91009d;}.cls-10{fill:#91019d;}.cls-11{fill:#c566cd;}.cls-12{fill:#91019c;}.cls-13{fill:#92039b;}</style></defs><g id="Capa_2" data-name="Capa 2"><g id="Capa_1-2" data-name="Capa 1"><path class="cls-1" d="M815.79,58.25V189.38c-.32,2.36-.54,4.74-1,7.08A60.94,60.94,0,0,1,788,237.34c-10.54,7.1-22.28,10.31-35,10.3H62A57.82,57.82,0,0,1,34.8,241.3C12.24,229.42.33,210.63.15,185.11-.14,144.24.08,103.37.07,62.5A59.71,59.71,0,0,1,5.92,35.72C15.27,16.68,30.39,5,51.26.94,53.61.48,56,.42,58.37,0H757.49a7.57,7.57,0,0,0,.92.2,58.07,58.07,0,0,1,24.44,7c17.49,9.65,28.2,24.3,32,44C815.26,53.51,815.47,55.89,815.79,58.25ZM484.39,4A2.32,2.32,0,0,0,483,3.78H64.27a62.59,62.59,0,0,0-10.14.75A58,58,0,0,0,22.86,19.9c-12.62,12-19,26.73-19,44.15q0,59.51,0,119a58.78,58.78,0,0,0,5.58,25.68,59.31,59.31,0,0,0,34.18,31.17,60.55,60.55,0,0,0,21.24,3.45q153.24,0,306.49,0a4,4,0,0,1,.6,0c1,.14,1-.25.67-1.05a80.56,80.56,0,0,1-5.42-21.15,103.88,103.88,0,0,1,3.35-39.26c4.29-16,11-30.91,19-45.35,10.62-19.27,23-37.37,36-55.09C442.06,59,459.39,37.12,476.18,14.87Zm261,109.79c-.25-.57-.43-1-.58-1.36Q741,102.23,737.1,92c-1.3-3.45-1.3-3.43-5-3.32-.65,0-.9.2-1,.85q-2.91,18-5.88,35.94c-.13.8.17.84.79.83,1.44,0,2.88-.06,4.32,0,.83,0,1.08-.27,1.2-1,.79-4.93,1.63-9.85,2.45-14.77.48-2.84,1-5.67,1.51-8.86.3.83.48,1.32.64,1.8q3.79,11.1,7.59,22.21c.18.52.17,1.13,1.08,1.15s1-.55,1.22-1.14L754.31,103a1.53,1.53,0,0,1,.47-.87,1.56,1.56,0,0,1,.08.31c1.12,7.58,2.25,15.16,3.33,22.75.13.9.39,1.24,1.32,1.18a34.87,34.87,0,0,1,4,0c.87,0,1.3-.13,1-1.1a5.28,5.28,0,0,1-.1-.71q-2.37-16.29-4.76-32.6c-.15-1,0-2.36-.61-3s-2-.15-3.11-.23a3.84,3.84,0,0,1-.48,0c-.74-.13-1,.24-1.27.9-1.42,4-2.87,8-4.31,11.94S746.91,109.59,745.4,113.78Zm-263.32-3.7c0-6.35-1.13-10.33-3.67-13.91a17.65,17.65,0,0,0-25.87-3.24c-6.06,5.21-8.27,14.16-5.49,22.25a18,18,0,0,0,35-5.1Zm235.27-1a20.8,20.8,0,0,0-3.71-12.92A17.53,17.53,0,0,0,687.72,93c-6.11,5.49-7.9,12.54-6,20.3,3.27,13,16.22,17,25.85,11.92C714.27,121.7,717.11,115.62,717.35,109.12ZM555.09,108V125.2c0,.59-.14,1.17.85,1.15,3.6-.06,7.2.09,10.79-.09a16.2,16.2,0,0,0,12.81-7c3.23-4.42,3.94-9.41,3.25-14.7a16.94,16.94,0,0,0-14.95-14.73c-3.83-.41-7.67-.07-11.5-.2-1,0-1.28.25-1.28,1.25C555.11,96.6,555.09,102.27,555.09,108Zm90.09,0c0,5.75,0,11.5,0,17.25,0,.77.1,1.13,1,1.12,3.48-.07,7,0,10.43-.09a16.22,16.22,0,0,0,12-5.69c4.16-4.74,5.09-10.34,4.19-16.37a16.86,16.86,0,0,0-14.92-14.33c-3.82-.41-7.67-.08-11.5-.2-.94,0-1.21.23-1.2,1.18C645.2,96.57,645.18,102.28,645.18,108ZM508.87,106.8a2,2,0,0,1,.26-.38c3.66-2.7,3.3-10.69.53-13.59a10.08,10.08,0,0,0-6.61-3c-3.27-.33-6.56-.07-9.83-.19-1.05,0-1.33.25-1.33,1.31.05,11.15,0,22.29,0,33.44,0,1.91,0,1.94,2,1.91,3.84-.06,7.69.26,11.5-.18,3.52-.4,6.57-1.76,8.35-5.07a10.87,10.87,0,0,0,1.09-4.75C515,112.73,513.49,108,508.87,106.8ZM681.1,155.32c-.07,4.45.13,8.69-.21,12.92-.06.71.21.79.78.76,4.4-.16,8.8.15,13.19-.24a10.87,10.87,0,0,0,8.5-4.71c3-4.42,3.18-9.3,1.91-14.27a10.33,10.33,0,0,0-8.42-8.05c-5.14-1-10.37-.27-15.55-.58-.45,0-.48.24-.45.62C681.28,146.35,681,151,681.1,155.32Zm-58.41-14.14c-.87,0-2.39,0-3.91,0-2.23,0-2.23,0-2.12,2.1,0,.28,0,.56,0,.84,0,6.26,0,12.53,0,18.79a32.2,32.2,0,0,1-.19,5.38c-.13.8.33.74.83.72,4.39-.16,8.79.15,13.17-.24A10.9,10.9,0,0,0,639,164c2.78-4.08,3.11-8.63,2.15-13.31-1-4.88-3.89-8-8.86-9.06C629.32,141,626.32,141.29,622.69,141.18ZM498.49,156a18.58,18.58,0,0,0,2.05-1c2.81-1.84,3.16-4.67,2.76-7.63a6.48,6.48,0,0,0-5-5.63,12.92,12.92,0,0,0-3.55-.47c-4.16,0-8.31,0-12.47-.09-.87,0-1,.31-.9,1a35.25,35.25,0,0,1,.21,5.14c-.1,6.94.25,13.89-.22,20.82-.05.62.11.85.77.84,1.87,0,3.75,0,5.63,0,.6,0,.76-.22.68-.79a55.49,55.49,0,0,1-.19-6.82c0-2.92,0-2.92,2.89-2.9,2.32,0,3.45.75,4.33,2.87a49,49,0,0,1,2.43,6.86c.1.41.17.77.72.77h7.28c-1.52-3.47-2.94-6.75-4.39-10A5.1,5.1,0,0,0,498.49,156Zm12.88-.9c0,.64,0,1.28,0,1.91a11.19,11.19,0,0,0,.21,1.54c1.06,5.34,3.87,9.23,9.35,10.53s10.49.31,14.16-4.33c2.86-3.62,3.44-7.9,2.86-12.37-.62-4.79-2.77-8.66-7.38-10.55-4.83-2-9.68-1.77-14,1.36C512.53,146.05,511.36,150.35,511.37,155.07Zm13.69-46.95v17.13c0,.55-.14,1.1.79,1.1q8.68,0,17.39,0c.66,0,.81-.26.79-.85a31.19,31.19,0,0,1,0-3.35c.08-1-.32-1.11-1.16-1.1-3.48,0-7,0-10.44,0-.86,0-1.18-.16-1.16-1.11.06-3,.06-6.07,0-9.1,0-.91.25-1.15,1.14-1.14,3.4.06,6.8,0,10.2,0,.79,0,1.06-.22,1-1a29,29,0,0,1,0-3.23c.05-.86-.26-1.07-1.09-1.06-3.43,0-6.87,0-10.31,0-.73,0-1-.21-1-1,0-2.47.06-5,0-7.42,0-1,.28-1.21,1.21-1.19,3.48,0,7,0,10.43,0,.93,0,1.18-.27,1.12-1.15a18.66,18.66,0,0,1,0-3c.09-1-.33-1.18-1.23-1.17-5.48,0-10.95,0-16.43,0-1,0-1.36.22-1.34,1.31C525.09,96.69,525.06,102.4,525.06,108.12Zm90.1-.11v17.25c0,.54-.15,1.1.78,1.09q8.68,0,17.38,0c.65,0,.83-.24.8-.85a29.33,29.33,0,0,1,0-3.11c.08-1-.17-1.38-1.28-1.35-3.48.08-7,0-10.43,0-.74,0-1.06-.14-1-1,0-3.11,0-6.23,0-9.34,0-.9.34-1,1.11-1,3.4,0,6.8,0,10.19,0,.79,0,1.06-.21,1-1a26.78,26.78,0,0,1,0-3.23c.06-.85-.23-1.07-1.06-1.06-3.36,0-6.72,0-10.07,0-1,0-1.21-.3-1.18-1.21q.07-3.6,0-7.19c0-.84.15-1.19,1.1-1.18,3.52.06,7,0,10.55,0,.8,0,1.16-.17,1.1-1a23.05,23.05,0,0,1,0-3.11c.07-.89-.22-1.15-1.13-1.15q-8.32.08-16.66,0c-1,0-1.21.27-1.2,1.21C615.18,96.59,615.16,102.3,615.16,108Zm97.85,47c-.06,4.27.13,8.55-.18,12.82-.08,1,.19,1.15,1.1,1.15,6.32-.06,12.63-.22,18.94.09.6,0,.79-.14.78-.71,0-1.48-.06-3,0-4.44,0-.88-.29-1-1.11-1-4,.09-8,.09-12,.15-.71,0-1-.17-1-.93a28.86,28.86,0,0,0,0-3.48c-.05-.88.2-1.17,1.12-1.15,3.36.06,6.72-.06,10.07.19.76.05,1.08-.08,1-.93-.07-1.39-.06-2.79,0-4.19,0-.78-.16-1-1-.94-3.43.25-6.87.1-10.31.16-.78,0-1-.3-.91-1a19.42,19.42,0,0,0,0-2.75c-.07-.9.23-1.16,1.13-1.14,3.83.1,7.68-.11,11.5.21.77.07,1.07-.11,1-.94-.06-1.47,0-3,0-4.43,0-.74-.27-.85-.93-.8-1.19.11-2.39.19-3.58.19-5,0-10,0-15,0-.51,0-1-.18-1,.73C713.15,146.26,712.94,150.66,713,155.05Zm-124,0c-.05,4.27.14,8.55-.18,12.81-.08,1,.17,1.17,1.1,1.16,6.31-.06,12.63-.22,18.94.09.71,0,.79-.25.78-.82,0-1.44,0-2.88,0-4.31,0-.86-.24-1-1.09-1-4,.09-8,.08-12,.16-.84,0-1-.3-1-1a26.75,26.75,0,0,0,0-3.35c-.08-1,.35-1.18,1.24-1.17,3.31.05,6.63-.07,9.94.19.9.07,1.08-.22,1-1-.06-1.35,0-2.71,0-4.07,0-.76-.12-1-1-.95-3.43.25-6.87.1-10.31.16-.76,0-1-.28-.92-1a21.18,21.18,0,0,0,0-2.76c-.08-.89.21-1.16,1.12-1.14,3.84.1,7.68-.11,11.5.21.77.07,1.07-.11,1-.94-.07-1.43-.05-2.87,0-4.31,0-.69-.11-1-.92-.92a35.13,35.13,0,0,1-3.7.19c-5,0-9.91,0-14.87,0-.5,0-1-.18-1,.72C589.13,146.26,588.92,150.66,589,155.05Zm173-6.69a8.48,8.48,0,0,0-6.56-7.25,15.49,15.49,0,0,0-9.88.47,7.86,7.86,0,0,0,.85,15c2.39.63,4.8,1.19,7.16,1.93a2.59,2.59,0,0,1,.88,4.5c-2.43,2.06-6.91.72-7.68-2.36-.16-.62-.4-.76-1-.7q-2.68.29-5.37.51c-.54,0-.78.22-.68.82.52,3.09,1.85,5.62,4.84,6.95a17.37,17.37,0,0,0,10.68.92,8.82,8.82,0,0,0,5.1-2.67,8.39,8.39,0,0,0-3.92-13.76c-2-.59-3.93-1-5.93-1.43a5.38,5.38,0,0,1-2.22-.85,2.14,2.14,0,0,1-.32-3.25c1.74-1.88,5.83-1.14,6.72,1.22.16.42.27.79.88.71C757.7,148.82,759.84,148.6,762,148.36ZM646.65,169c2.39,0,4.67,0,6.94,0a.79.79,0,0,0,.94-.8,35.43,35.43,0,0,1,1.25-4.73,1.06,1.06,0,0,1,1.23-.94q3.82.09,7.67,0a1,1,0,0,1,1.15.88,32.33,32.33,0,0,1,1.22,4.74c.09.64.36.87,1,.85,1.87,0,3.75,0,5.63,0,1.37,0,1.35,0,.89-1.24-3.23-8.54-6.36-17.11-9.26-25.76-.18-.53-.39-.76-1-.75-2.4,0-4.8,0-7.2,0-.49,0-.77.1-.92.66-.91,3.44-2.27,6.72-3.45,10.07C650.77,157.55,648.73,163.16,646.65,169Zm-94.87-27.77c-1.34,0-2.9,0-4.46,0-2.32,0-2.2,0-2.2,2.3,0,8.18.29,16.37-.15,24.55-.05.77.18,1,.9.94,1.76,0,3.52-.05,5.28,0,.85,0,1-.3.91-1.05a68.1,68.1,0,0,1-.21-7.42c0-.69.2-.87.87-.87a59.75,59.75,0,0,0,6-.12c5.42-.52,8.33-3.64,8.6-9.06.23-4.6-2.24-7.82-6.71-8.84C557.75,141,554.87,141.33,551.78,141.18Zm-99,13.83c-.06,4.35.13,8.7-.21,13.05,0,.69.13.92.83.9q2.7-.06,5.4,0c.71,0,.84-.25.81-.92-.1-2.47-.1-4.95-.21-7.42,0-.81.26-1,1-1a41.11,41.11,0,0,0,6.47-.17c3.42-.52,6.18-2.08,7.34-5.51s1.1-7-1.51-9.9c-1.91-2.16-4.56-2.72-7.29-2.79-4-.11-8.07-.07-12.1-.13-.65,0-.81.19-.76.83C452.86,146.3,452.67,150.66,452.73,155Zm121.31.57c-.12,4.23.17,8.47-.21,12.69-.06.57.18.69.67.69,2,0,3.91,0,5.87,0,.7,0,.81-.3.71-.88a29.21,29.21,0,0,1-.18-5.37c.09-7-.27-13.9.2-20.84,0-.43,0-.67-.55-.67-2,0-4.08,0-6.12,0-.42,0-.65.09-.61.6C574.22,146.4,573.91,151,574,155.58Zm24.2-42c1.67,0,3.35,0,5,0,.67,0,.93-.2.9-.89,0-1.27,0-2.55,0-3.82,0-.66-.16-.93-.86-.92q-5.09,0-10.17,0c-.73,0-.87.33-.85,1,0,1.23.05,2.47,0,3.7,0,.83.32,1,1.06,1C595,113.54,596.6,113.57,598.24,113.57Z"/><path class="cls-2" d="M484.39,4l-8.21,10.88C459.39,37.12,442.06,59,425.57,81.46c-13,17.72-25.41,35.82-36,55.09-8,14.44-14.71,29.39-19,45.35a103.88,103.88,0,0,0-3.35,39.26,80.56,80.56,0,0,0,5.42,21.15c.33.8.33,1.19-.67,1.05a4,4,0,0,0-.6,0q-153.24,0-306.49,0a60.55,60.55,0,0,1-21.24-3.45A59.31,59.31,0,0,1,9.43,208.75a58.78,58.78,0,0,1-5.58-25.68q0-59.5,0-119c0-17.42,6.37-32.18,19-44.15A58,58,0,0,1,54.13,4.53a62.59,62.59,0,0,1,10.14-.75H483A2.32,2.32,0,0,1,484.39,4ZM200.94,46.26a50.25,50.25,0,0,0,4.3,7.42,49.71,49.71,0,0,1-6.8-3.42l-2.09-1.11a22.82,22.82,0,0,0,.84,8.22,15.11,15.11,0,0,0,3.39,6.22A23.73,23.73,0,0,0,205.3,71a15.43,15.43,0,0,1-3.32-.24c-.43,0-.87-.06-.61.59a18,18,0,0,0,3.37,6.1c.23.46.49.91.71,1.38a21.31,21.31,0,0,0,5.92,7.84,25.83,25.83,0,0,0,6.73,3.55c.67,1,2,1.35,2.69,2.34l-2.21.67c2.77,3.19,5.66,6,9.83,6.7a113.31,113.31,0,0,0,16.53,1.95,39.83,39.83,0,0,0,7-.23c-.7,1.21-1.33,2.17-1.84,3.19A2,2,0,0,1,248,106q-55.46,0-110.93,0h-.83a.64.64,0,0,1-.63-.26,29.08,29.08,0,0,1-2.29-4c1.06.08,2,.18,2.89.2a101.26,101.26,0,0,0,20.48-2c4.21-.74,7.11-3.53,9.88-6.72l-2.2-.66c.61-1,2-1.19,2.51-2.25a12.64,12.64,0,0,1,1.3-.59,18.93,18.93,0,0,0,9-6.6,45,45,0,0,0,3.22-5.7,17.13,17.13,0,0,0,3.32-6c.28-.7-.21-.7-.69-.66A12.8,12.8,0,0,1,180,71a28.85,28.85,0,0,0,4.73-7.56,13.65,13.65,0,0,0,3.16-5.68,21.58,21.58,0,0,0,.92-8.59c-1.62.89-3.07,1.73-4.56,2.49a21.1,21.1,0,0,1-4.29,2c0-.48.43-.74.68-1.08a24.05,24.05,0,0,0,3.22-5.83A2.65,2.65,0,0,0,185,45.54c4.07-6.29,4.39-12.84,1.4-19.63-.52-1.2-.55-1.2-1.38-.13a189.49,189.49,0,0,1-19.7,21.72,20,20,0,0,1-11.68,5.84c-2.37.26-4.6-.34-6.88-.73a7.44,7.44,0,0,0-7.48,2.71c-.61.74-1.12,1.56-1.71,2.32a19.47,19.47,0,0,1-10,7.11,7.37,7.37,0,0,0,.31-5.15,9,9,0,0,0-8.63-5.88,9.15,9.15,0,0,0-8.73,5.39c-.62,1.58-.72,3.29-1.46,4.88a85,85,0,0,0-7.65,40.75c0,1-.14,1.25-1.16,1.24-9.88,0-19.75,0-29.63,0-.88,0-1.23.25-1.43,1.1-1,3.9-2,7.81-3,11.69-.28,1,0,1.16,1,1.16q126.12,0,252.23,0c1,0,1.2-.23,1-1.18q-1.14-5.94-2.17-11.89c-.12-.7-.4-.89-1.1-.89-3.83,0-7.67,0-11.51,0-6.88,0-13.75,0-20.63,0-1.12,0-1.31-.31-1.19-1.34a39.35,39.35,0,0,0,.12-4.07,88.94,88.94,0,0,0-3.38-25.06c-1.56-5.52-4.26-10.61-5.83-16.14-1.32-4.62-6.91-6.78-11.9-5.11-3.72,1.25-7.21,5.09-5.21,10.46a8.93,8.93,0,0,1-2.45-.91A21,21,0,0,1,247,56.74a9.82,9.82,0,0,0-3.13-3.25,8.44,8.44,0,0,0-6.72-.62,16.44,16.44,0,0,1-13.39-2.36,29.22,29.22,0,0,1-4.49-3.59,197.9,197.9,0,0,1-18.92-21c-.29-.36-.48-.84-1.07-1-2.53,5.25-3.34,10.62-1.25,16.21A12.44,12.44,0,0,0,200.94,46.26ZM87,121.77c0,.26,0,.41.07.56,1.48,8.45,3,16.89,4.44,25.35.14.82.52,1,1.27.95,6.72,0,13.44,0,20.15,0,.92,0,1.12.25,1.11,1.13,0,4.19-.07,8.39,0,12.58,0,1.17-.37,1.35-1.41,1.34-6.59,0-13.19,0-19.79,0-.81,0-1.21.16-1.34,1q-2.16,14.33-4.4,28.64c-.16,1,.08,1.15,1,1.15q108.14,0,216.26,0c1.11,0,1.2-.34,1-1.29-1.67-9.39-3.34-18.78-4.92-28.18-.19-1.15-.61-1.38-1.67-1.37-7.64,0-15.28,0-22.91,0-.91,0-1.24-.19-1.23-1.18q.09-6.35,0-12.7c0-1,.29-1.17,1.21-1.16,7.75,0,15.51,0,23.27,0,.86,0,1.14-.27,1.3-1.09,1.58-8.1,3.21-16.2,4.83-24.29.3-1.49.3-1.49-1.15-1.49H87ZM67.65,158.56h36.11c2.6,0,5.2,0,7.8,0,.85,0,1.09-.25,1-1.08a27,27,0,0,1,0-3.71c.1-1.2-.21-1.58-1.51-1.58q-43.36.06-86.73,0h-.72a1.68,1.68,0,0,0-1.88,1.84c-.05.64,0,1.28,0,1.92,0,2.17.4,2.56,2.6,2.56Zm249.11,0h38.39c3.69,0,3.69,0,3.68-3.73,0-2.21-.38-2.59-2.57-2.59H277.21a3.84,3.84,0,0,1-.48,0c-.71-.1-1,.16-1,.92.05,1.23,0,2.47,0,3.71,0,1.85-.26,1.69,1.64,1.69ZM119.29,195.84c-1.55,0-3.11,0-4.67,0-.55,0-.87,0-.86.75,0,2.51,0,5,0,7.54,0,.54.14.78.74.78q4.66,0,9.33,0c.65,0,.82-.23.82-.84q0-3.7,0-7.41c0-.62-.17-.84-.81-.82C122.33,195.87,120.81,195.84,119.29,195.84Zm154.09,8.94c1.52,0,3,0,4.54,0,.72,0,1-.17.95-.93-.05-2.38,0-4.78,0-7.16,0-.67-.16-.89-.86-.89q-4.61.06-9.21,0c-.73,0-.84.29-.84.92q0,3.58,0,7.17c0,.66.19.91.88.89C270.35,204.75,271.87,204.78,273.38,204.78Z"/><path class="cls-3" d="M745.4,113.78c1.51-4.19,3-8.2,4.42-12.21s2.89-7.95,4.31-11.94c.23-.66.53-1,1.27-.9a3.84,3.84,0,0,0,.48,0c1.06.08,2.44-.45,3.11.23s.46,2,.61,3q2.39,16.31,4.76,32.6a5.28,5.28,0,0,0,.1.71c.31,1-.12,1.14-1,1.1a34.87,34.87,0,0,0-4,0c-.93.06-1.19-.28-1.32-1.18-1.08-7.59-2.21-15.17-3.33-22.75a1.56,1.56,0,0,0-.08-.31,1.53,1.53,0,0,0-.47.87L746,125.71c-.21.59-.3,1.16-1.22,1.14s-.9-.63-1.08-1.15q-3.81-11.1-7.59-22.21c-.16-.48-.34-1-.64-1.8-.55,3.19-1,6-1.51,8.86-.82,4.92-1.66,9.84-2.45,14.77-.12.77-.37,1.08-1.2,1-1.44-.08-2.88,0-4.32,0-.62,0-.92,0-.79-.83q3-18,5.88-35.94c.11-.65.36-.83,1-.85,3.69-.11,3.69-.13,5,3.32q3.85,10.18,7.72,20.38C745,112.82,745.15,113.21,745.4,113.78Z"/><path class="cls-3" d="M482.08,110.08a18,18,0,0,1-35,5.1c-2.78-8.09-.57-17,5.49-22.25a17.65,17.65,0,0,1,25.87,3.24C481,99.75,482.12,103.73,482.08,110.08Zm-6.42-2.25a14,14,0,0,0-1.47-6.7A10.75,10.75,0,0,0,464,94.88a10.38,10.38,0,0,0-10.07,6.25c-2.66,5.62-2,11,1.81,16a10.74,10.74,0,0,0,17.36-.57A15,15,0,0,0,475.66,107.83Z"/><path class="cls-3" d="M717.35,109.12c-.24,6.5-3.08,12.58-9.73,16.12-9.63,5.12-22.58,1-25.85-11.92-1.95-7.76-.16-14.81,6-20.3a17.53,17.53,0,0,1,25.92,3.18A20.8,20.8,0,0,1,717.35,109.12ZM699.53,94.88c-5.15,0-8.62,2.23-10.55,6.57a14.33,14.33,0,0,0,2.12,15.81,10.69,10.69,0,0,0,17.26-.85,15.19,15.19,0,0,0,2.35-11.2C709.87,99.63,705.85,94.75,699.53,94.88Z"/><path class="cls-4" d="M555.09,108c0-5.68,0-11.35,0-17,0-1,.29-1.29,1.28-1.25,3.83.13,7.67-.21,11.5.2a16.94,16.94,0,0,1,14.95,14.73c.69,5.29,0,10.28-3.25,14.7a16.2,16.2,0,0,1-12.81,7c-3.59.18-7.19,0-10.79.09-1,0-.86-.56-.85-1.15V108Zm6.24.08c0,3.87,0,7.74,0,11.61,0,.84.24,1.15,1.08,1.08,1.2-.09,2.4-.08,3.59-.17,5.28-.4,8.93-3.3,10.07-8.07a19.22,19.22,0,0,0,.14-8.2,9.91,9.91,0,0,0-8.32-8.45,33.62,33.62,0,0,0-5.48-.49c-.83,0-1.09.24-1.08,1.08C561.35,100.29,561.33,104.16,561.33,108Z"/><path class="cls-3" d="M645.18,108c0-5.71,0-11.42,0-17.13,0-1,.26-1.21,1.2-1.18,3.83.12,7.68-.21,11.5.2a16.86,16.86,0,0,1,14.92,14.33c.9,6,0,11.63-4.19,16.37a16.22,16.22,0,0,1-12,5.69c-3.47.14-7,0-10.43.09-.91,0-1-.35-1-1.12C645.19,119.49,645.18,113.74,645.18,108Zm6.23,0v11.49a.48.48,0,0,1,0,.12c-.16.91.24,1.2,1.13,1.12,1.15-.1,2.31-.08,3.47-.17,5.42-.4,9.06-3.36,10.17-8.39a18.91,18.91,0,0,0-.09-8.66,9.79,9.79,0,0,0-7.89-7.61,30,30,0,0,0-5.82-.55c-.83,0-1,.29-1,1C651.43,100.24,651.41,104.11,651.41,108Z"/><path class="cls-3" d="M508.87,106.8c4.62,1.16,6.1,5.93,6,9.53a10.87,10.87,0,0,1-1.09,4.75c-1.78,3.31-4.83,4.67-8.35,5.07-3.81.44-7.66.12-11.5.18-2,0-2,0-2-1.91,0-11.15,0-22.29,0-33.44,0-1.06.28-1.35,1.33-1.31,3.27.12,6.56-.14,9.83.19a10.08,10.08,0,0,1,6.61,3c2.77,2.9,3.13,10.89-.53,13.59A2,2,0,0,0,508.87,106.8ZM501,121.36a16.55,16.55,0,0,0,3.44-.3,5.33,5.33,0,0,0,4.28-5.69c0-2.71-1.51-4.48-4.29-5.1a28,28,0,0,0-5.25-.33c-.78,0-1,.21-1,1,.05,2.55,0,5.1,0,7.66C498.15,121.36,498.15,121.36,501,121.36ZM498.15,99.9c0,.68,0,1.36,0,2,.07,1.14-.52,2.82.22,3.3,1.08.68,2.7.28,4.08,0a3.91,3.91,0,0,0,3.29-2.79,8,8,0,0,0-.08-5.06,4,4,0,0,0-3.18-2.76,21.08,21.08,0,0,0-3.46-.2c-.68,0-.91.2-.89.88C498.18,96.87,498.15,98.38,498.15,99.9Z"/><path class="cls-5" d="M681.1,155.32c-.11-4.37.18-9-.25-13.55,0-.38,0-.65.45-.62,5.18.31,10.41-.47,15.55.58a10.33,10.33,0,0,1,8.42,8.05c1.27,5,1.06,9.85-1.91,14.27a10.87,10.87,0,0,1-8.5,4.71c-4.39.39-8.79.08-13.19.24-.57,0-.84-.05-.78-.76C681.23,164,681,159.77,681.1,155.32Zm6.6-.34c0,2.39,0,4.79,0,7.18,0,.53,0,.92.73.9,1.6-.06,3.2.05,4.79-.08a5.62,5.62,0,0,0,5-3.54,12.25,12.25,0,0,0,.52-7.61,5.55,5.55,0,0,0-5.45-4.66c-1.55-.08-3.11,0-4.66-.09-.75,0-1,.24-.94,1C687.72,150.35,687.7,152.67,687.7,155Z"/><path class="cls-6" d="M622.69,141.18c3.63.11,6.63-.15,9.6.49,5,1.07,7.86,4.18,8.86,9.06,1,4.68.63,9.23-2.15,13.31a10.9,10.9,0,0,1-8.49,4.72c-4.38.39-8.78.08-13.17.24-.5,0-1,.08-.83-.72a32.2,32.2,0,0,0,.19-5.38c0-6.26,0-12.53,0-18.79,0-.28,0-.56,0-.84-.11-2.15-.11-2.13,2.12-2.1C620.3,141.2,621.82,141.18,622.69,141.18Zm.67,13.82c0,2.39,0,4.78,0,7.18,0,.66.17.9.87.88,1.47-.06,2.95,0,4.43-.06a5.7,5.7,0,0,0,5.27-3.68,12.48,12.48,0,0,0,.49-7.4,5.57,5.57,0,0,0-5.49-4.75c-1.55-.08-3.11,0-4.67-.09-.8,0-.9.3-.89,1C623.38,150.37,623.36,152.69,623.36,155Z"/><path class="cls-7" d="M498.49,156a5.1,5.1,0,0,1,3,3c1.45,3.27,2.87,6.55,4.39,10h-7.28c-.55,0-.62-.36-.72-.77a49,49,0,0,0-2.43-6.86c-.88-2.12-2-2.86-4.33-2.87-2.89,0-2.91,0-2.89,2.9a55.49,55.49,0,0,0,.19,6.82c.08.57-.08.79-.68.79-1.88,0-3.76,0-5.63,0-.66,0-.82-.22-.77-.84.47-6.93.12-13.88.22-20.82a35.25,35.25,0,0,0-.21-5.14c-.1-.73,0-1,.9-1,4.16.08,8.31.07,12.47.09a12.92,12.92,0,0,1,3.55.47,6.48,6.48,0,0,1,5,5.63c.4,3,.05,5.79-2.76,7.63A18.58,18.58,0,0,1,498.49,156Zm-10.24-6.25c0,.8,0,1.6,0,2.39,0,.37.07.63.52.61,1.9-.09,3.83.22,5.72-.21a2.7,2.7,0,0,0,2-3.13,2.27,2.27,0,0,0-2.28-2.42c-1-.1-2.07-.09-3.11-.09C488.25,146.86,488.25,146.86,488.25,149.72Z"/><path class="cls-5" d="M511.37,155.07c0-4.72,1.16-9,5.18-11.91,4.35-3.13,9.2-3.34,14-1.36,4.61,1.89,6.76,5.76,7.38,10.55.58,4.47,0,8.75-2.86,12.37-3.67,4.64-8.67,5.63-14.16,4.33s-8.29-5.19-9.35-10.53a11.19,11.19,0,0,1-.21-1.54C511.34,156.35,511.37,155.71,511.37,155.07Zm6.88,0a11.83,11.83,0,0,0,.8,4.66,6,6,0,0,0,5.68,4,5.83,5.83,0,0,0,5.63-4.06,13.13,13.13,0,0,0,0-9.24,5.73,5.73,0,0,0-5.63-4,5.9,5.9,0,0,0-5.72,3.94A11.55,11.55,0,0,0,518.25,155.06Z"/><path class="cls-3" d="M525.06,108.12c0-5.72,0-11.43,0-17.14,0-1.09.31-1.32,1.34-1.31,5.48,0,11,0,16.43,0,.9,0,1.32.17,1.23,1.17a18.66,18.66,0,0,0,0,3c.06.88-.19,1.17-1.12,1.15-3.47-.06-6.95,0-10.43,0-.93,0-1.24.22-1.21,1.19.07,2.47.05,5,0,7.42,0,.74.22,1,1,1,3.44,0,6.88,0,10.31,0,.83,0,1.14.2,1.09,1.06a29,29,0,0,0,0,3.23c0,.79-.23,1-1,1-3.4,0-6.8,0-10.2,0-.89,0-1.16.23-1.14,1.14.06,3,.06,6.07,0,9.1,0,1,.3,1.12,1.16,1.11,3.48,0,7,0,10.44,0,.84,0,1.24.15,1.16,1.1a31.19,31.19,0,0,0,0,3.35c0,.59-.13.85-.79.85q-8.7,0-17.39,0c-.93,0-.79-.55-.79-1.1Z"/><path class="cls-3" d="M615.16,108c0-5.71,0-11.42,0-17.13,0-.94.24-1.21,1.2-1.21q8.32.08,16.66,0c.91,0,1.2.26,1.13,1.15a23.05,23.05,0,0,0,0,3.11c.06.88-.3,1.06-1.1,1-3.51,0-7,0-10.55,0-1,0-1.12.34-1.1,1.18q.07,3.59,0,7.19c0,.91.2,1.23,1.18,1.21,3.35-.06,6.71,0,10.07,0,.83,0,1.12.21,1.06,1.06a26.78,26.78,0,0,0,0,3.23c0,.8-.22,1-1,1-3.39,0-6.79,0-10.19,0-.77,0-1.13.12-1.11,1,0,3.11,0,6.23,0,9.34,0,.83.3,1,1,1,3.47,0,7,0,10.43,0,1.11,0,1.36.34,1.28,1.35a29.33,29.33,0,0,0,0,3.11c0,.61-.15.85-.8.85q-8.69,0-17.38,0c-.93,0-.78-.55-.78-1.09Z"/><path class="cls-6" d="M713,155.05c-.07-4.39.14-8.79-.21-13.17-.07-.91.44-.74,1-.73,5,0,10,0,15,0,1.19,0,2.39-.08,3.58-.19.66,0,.95.06.93.8,0,1.48-.06,3,0,4.43,0,.83-.26,1-1,.94-3.82-.32-7.67-.11-11.5-.21-.9,0-1.2.24-1.13,1.14a19.42,19.42,0,0,1,0,2.75c0,.69.13,1,.91,1,3.44-.06,6.88.09,10.31-.16.83-.06,1,.16,1,.94,0,1.4-.06,2.8,0,4.19,0,.85-.28,1-1,.93-3.35-.25-6.71-.13-10.07-.19-.92,0-1.17.27-1.12,1.15a28.86,28.86,0,0,1,0,3.48c0,.76.25.94,1,.93,4-.06,8-.06,12-.15.82,0,1.15.11,1.11,1-.07,1.48,0,3,0,4.44,0,.57-.18.74-.78.71-6.31-.31-12.62-.15-18.94-.09-.91,0-1.18-.14-1.1-1.15C713.14,163.6,713,159.32,713,155.05Z"/><path class="cls-6" d="M589,155.05c-.06-4.39.15-8.79-.21-13.18-.07-.9.45-.73,1-.72,5,0,9.91,0,14.87,0a35.13,35.13,0,0,0,3.7-.19c.81-.09.94.23.92.92,0,1.44-.06,2.88,0,4.31,0,.83-.26,1-1,.94-3.82-.32-7.66-.11-11.5-.21-.91,0-1.2.25-1.12,1.14a21.18,21.18,0,0,1,0,2.76c0,.7.16,1,.92,1,3.44-.06,6.88.09,10.31-.16.86-.07,1,.19,1,.95,0,1.36-.06,2.72,0,4.07,0,.82-.14,1.11-1,1-3.31-.26-6.63-.14-9.94-.19-.89,0-1.32.16-1.24,1.17a26.75,26.75,0,0,1,0,3.35c0,.75.15,1.06,1,1,4-.08,8-.07,12-.16.85,0,1.13.15,1.09,1-.06,1.43,0,2.87,0,4.31,0,.57-.07.86-.78.82-6.31-.31-12.63-.15-18.94-.09-.93,0-1.18-.18-1.1-1.16C589.12,163.6,588.93,159.32,589,155.05Z"/><path class="cls-7" d="M762,148.36c-2.14.24-4.28.46-6.41.73-.61.08-.72-.29-.88-.71-.89-2.36-5-3.1-6.72-1.22a2.14,2.14,0,0,0,.32,3.25,5.38,5.38,0,0,0,2.22.85c2,.4,4,.84,5.93,1.43a8.39,8.39,0,0,1,3.92,13.76,8.82,8.82,0,0,1-5.1,2.67,17.37,17.37,0,0,1-10.68-.92c-3-1.33-4.32-3.86-4.84-6.95-.1-.6.14-.77.68-.82q2.69-.23,5.37-.51c.56-.06.8.08,1,.7.77,3.08,5.25,4.42,7.68,2.36a2.59,2.59,0,0,0-.88-4.5c-2.36-.74-4.77-1.3-7.16-1.93a7.86,7.86,0,0,1-.85-15,15.49,15.49,0,0,1,9.88-.47A8.48,8.48,0,0,1,762,148.36Z"/><path class="cls-6" d="M646.65,169c2.08-5.79,4.12-11.4,6.12-17,1.18-3.35,2.54-6.63,3.45-10.07.15-.56.43-.66.92-.66,2.4,0,4.8,0,7.2,0,.6,0,.81.22,1,.75,2.9,8.65,6,17.22,9.26,25.76.46,1.24.48,1.24-.89,1.24-1.88,0-3.76,0-5.63,0-.66,0-.93-.21-1-.85a32.33,32.33,0,0,0-1.22-4.74,1,1,0,0,0-1.15-.88q-3.84.09-7.67,0a1.06,1.06,0,0,0-1.23.94,35.43,35.43,0,0,0-1.25,4.73.79.79,0,0,1-.94.8C651.32,168.93,649,169,646.65,169Zm14.23-21.55-.24,0c-.89,2.84-1.77,5.7-2.67,8.54-.21.65-.13.93.65.91,1.51-.05,3,0,4.55,0,.45,0,.68-.11.52-.62C662.75,153.29,661.82,150.34,660.88,147.4Z"/><path class="cls-7" d="M551.78,141.18c3.09.15,6-.22,8.82.43,4.47,1,6.94,4.24,6.71,8.84-.27,5.42-3.18,8.54-8.6,9.06a59.75,59.75,0,0,1-6,.12c-.67,0-.9.18-.87.87a68.1,68.1,0,0,0,.21,7.42c.11.75-.06,1.08-.91,1.05-1.76-.06-3.52-.05-5.28,0-.72,0-1-.17-.9-.94.44-8.18.18-16.37.15-24.55,0-2.35-.12-2.33,2.2-2.3C548.88,141.2,550.44,141.18,551.78,141.18Zm.16,9.22h-.08c0,1,0,1.92,0,2.87,0,.42.08.68.58.67,1.72,0,3.44.07,5.14-.07,1.86-.16,2.94-1.64,2.88-3.62a3.1,3.1,0,0,0-3.07-3.3,15.26,15.26,0,0,0-2,0c-1.14.06-2.66-.51-3.3.24S551.94,149.3,551.94,150.4Z"/><path class="cls-5" d="M452.73,155c-.06-4.35.13-8.71-.21-13,0-.64.11-.84.76-.83,4,.06,8.07,0,12.1.13,2.73.07,5.38.63,7.29,2.79,2.61,2.94,2.69,6.4,1.51,9.9s-3.92,5-7.34,5.51a41.11,41.11,0,0,1-6.47.17c-.76,0-1.05.18-1,1,.11,2.47.11,4.95.21,7.42,0,.67-.1.94-.81.92q-2.7-.06-5.4,0c-.7,0-.88-.21-.83-.9C452.86,163.71,452.67,159.36,452.73,155Zm9.85-8.07v0c-.84,0-1.68,0-2.52,0-.51,0-.7.18-.7.69,0,1.88,0,3.76,0,5.63,0,.51.19.71.7.7,1.6,0,3.21.05,4.8-.05,2-.12,3.12-1.49,3.08-3.66a3.06,3.06,0,0,0-3.2-3.29C464,146.9,463.3,146.94,462.58,146.94Z"/><path class="cls-8" d="M574,155.58c-.13-4.59.18-9.18-.22-13.77,0-.51.19-.61.61-.6,2,0,4.08,0,6.12,0,.51,0,.58.24.55.67-.47,6.94-.11,13.89-.2,20.84a29.21,29.21,0,0,0,.18,5.37c.1.58,0,.89-.71.88-2,0-3.91,0-5.87,0-.49,0-.73-.12-.67-.69C574.21,164.05,573.92,159.81,574,155.58Z"/><path class="cls-4" d="M598.24,113.57c-1.64,0-3.27,0-4.91,0-.74,0-1.1-.15-1.06-1,.06-1.23,0-2.47,0-3.7,0-.62.12-1,.85-1q5.08,0,10.17,0c.7,0,.88.26.86.92,0,1.27,0,2.55,0,3.82,0,.69-.23.9-.9.89C601.59,113.55,599.91,113.57,598.24,113.57Z"/><path class="cls-1" d="M87,121.77H304.15c1.45,0,1.45,0,1.15,1.49-1.62,8.09-3.25,16.19-4.83,24.29-.16.82-.44,1.09-1.3,1.09-7.76,0-15.52,0-23.27,0-.92,0-1.22.19-1.21,1.16q.09,6.35,0,12.7c0,1,.32,1.18,1.23,1.18,7.63,0,15.27,0,22.91,0,1.06,0,1.48.22,1.67,1.37,1.58,9.4,3.25,18.79,4.92,28.18.17.95.08,1.29-1,1.29q-108.12,0-216.26,0c-.93,0-1.17-.16-1-1.15q2.26-14.31,4.4-28.64c.13-.88.53-1,1.34-1,6.6,0,13.2,0,19.79,0,1,0,1.43-.17,1.41-1.34-.08-4.19-.06-8.39,0-12.58,0-.88-.19-1.13-1.11-1.13-6.71,0-13.43,0-20.15,0-.75,0-1.13-.13-1.27-.95-1.46-8.46-3-16.9-4.44-25.35C87.05,122.18,87,122,87,121.77Zm107.27,26.84q-37.07,0-74.13,0c-1,0-1.29.2-1.28,1.23.06,4.12.09,8.23,0,12.35,0,1.27.38,1.48,1.55,1.48q32.81,0,65.61,0,41.21,0,82.41,0c1.11,0,1.4-.28,1.38-1.38-.06-4.12-.07-8.23,0-12.35,0-1.15-.37-1.33-1.4-1.33Q231.36,148.64,194.28,148.61Z"/><path class="cls-9" d="M164.41,92.53l2.2.66c-2.77,3.19-5.67,6-9.88,6.72a101.26,101.26,0,0,1-20.48,2c-.91,0-1.83-.12-2.89-.2a29.08,29.08,0,0,0,2.29,4,.64.64,0,0,0,.63.26h.83q55.47,0,110.93,0a2,2,0,0,0,2.07-1.17c.51-1,1.14-2,1.84-3.19a39.83,39.83,0,0,1-7,.23,113.31,113.31,0,0,1-16.53-1.95c-4.17-.74-7.06-3.51-9.83-6.7l2.21-.67L225,91.3c-2.36-.26-4.61-.73-6.87-1.11a25.83,25.83,0,0,1-6.73-3.55,21.31,21.31,0,0,1-5.92-7.84c-.22-.47-.48-.92-.71-1.38-.12-.83.27-1,1-1,1.66.21,3.33.45,5,.59a25.24,25.24,0,0,0,5.15.24A29.94,29.94,0,0,1,205.3,71a23.73,23.73,0,0,1-4.72-7.38,2.09,2.09,0,0,0-.15-1.05,26.07,26.07,0,0,1-.77-6.52c0-1,.19-1.19,1.12-.67,2.62,1.46,5.24,2.91,7.92,4.24a66.27,66.27,0,0,0,8.7,4l.27.1-.21-.17A57.25,57.25,0,0,1,205.58,54c-.08-.16-.16-.31-.38-.28h0a50.25,50.25,0,0,1-4.3-7.42c.27-.3.05-.61,0-.9a19.89,19.89,0,0,1,1.21-13.56c.58-1.37.64-1.38,1.54-.23a197.2,197.2,0,0,0,19.62,21.64,24.12,24.12,0,0,0,6.08,4.23,16.93,16.93,0,0,0,12,1,7.55,7.55,0,0,1,6.11.93,10.88,10.88,0,0,1,3,3.24A19.81,19.81,0,0,0,255,67.33c3.65,2.7,7.59,4.41,12.27,3.68,1-.17,1.29-.4,1.57-1.6-4.76.86-8.7-.27-11.28-4.68-2-5.37,1.49-9.21,5.21-10.46,5-1.67,10.58.49,11.9,5.11,1.57,5.53,4.27,10.62,5.83,16.14a88.94,88.94,0,0,1,3.38,25.06,39.35,39.35,0,0,1-.12,4.07c-.12,1,.07,1.35,1.19,1.34,6.88-.06,13.75,0,20.63,0,3.84,0,7.68,0,11.51,0,.7,0,1,.19,1.1.89q1,5.94,2.17,11.89c.19,1-.05,1.18-1,1.18q-126.12,0-252.23,0c-.93,0-1.24-.11-1-1.16,1.07-3.88,2.06-7.79,3-11.69.2-.85.55-1.11,1.43-1.1,9.88,0,19.75,0,29.63,0,1,0,1.21-.23,1.16-1.24A85,85,0,0,1,109.06,64c.74-1.59.84-3.3,1.46-4.88a9.15,9.15,0,0,1,8.73-5.39,9,9,0,0,1,8.63,5.88,7.37,7.37,0,0,1-.31,5.15c-2.19,3.84-5.58,5.26-9.87,4.87-.32,0-.79-.29-.92.18a.86.86,0,0,0,.55,1,3.14,3.14,0,0,0,.9.28,13.79,13.79,0,0,0,8.46-1.53,21.69,21.69,0,0,0,8.54-7.67,7.69,7.69,0,0,1,8.63-3.44c.7.14,1.4.31,2.11.42a15.67,15.67,0,0,0,3.93.25c4.82-.44,8.71-2.75,12.11-6a192.47,192.47,0,0,0,19.6-21.65c.76-1,.86-1,1.37.17a20.12,20.12,0,0,1,.87,15.14,24.05,24.05,0,0,1-3.22,5.83c-.25.34-.66.6-.68,1.08H180l-.26,0a49.1,49.1,0,0,1-12.32,9.89.74.74,0,0,0,.81-.07q7-3.1,13.72-6.79c.91-.49,1.82-1,2.71-1.51.63-.36.88-.17.85.52,0,.91,0,1.83-.11,2.74-.18,1.65-.45,3.29-.68,4.93A28.85,28.85,0,0,1,180,71l0,0-.23.25a30.72,30.72,0,0,1-9.3,5.55,2.45,2.45,0,0,0-1.38.74c1-.06,1.78-.09,2.57-.17,2.53-.26,5.07-.55,7.61-.83.69-.08,1.34-.12,1.16.91a45,45,0,0,1-3.22,5.7,18.93,18.93,0,0,1-9,6.6,12.64,12.64,0,0,0-1.3.59c-2.23.25-4.43.78-6.72,1Z"/><path class="cls-10" d="M67.65,158.56H24.35c-2.2,0-2.59-.39-2.6-2.56,0-.64,0-1.28,0-1.92a1.68,1.68,0,0,1,1.88-1.84h.72q43.36,0,86.73,0c1.3,0,1.61.38,1.51,1.58a27,27,0,0,0,0,3.71c0,.83-.2,1.1-1,1.08-2.6-.05-5.2,0-7.8,0Z"/><path class="cls-10" d="M316.76,158.56H277.42c-1.9,0-1.62.16-1.64-1.69,0-1.24,0-2.48,0-3.71,0-.76.25-1,1-.92a3.84,3.84,0,0,0,.48,0h79.05c2.19,0,2.56.38,2.57,2.59,0,3.73,0,3.73-3.68,3.73Z"/><path class="cls-11" d="M257.56,64.73c2.58,4.41,6.52,5.54,11.28,4.68-.28,1.2-.54,1.43-1.57,1.6-4.68.73-8.62-1-12.27-3.68a19.81,19.81,0,0,1-4.52-4.75,10.88,10.88,0,0,0-3-3.24,7.55,7.55,0,0,0-6.11-.93,16.93,16.93,0,0,1-12-1,24.12,24.12,0,0,1-6.08-4.23,197.2,197.2,0,0,1-19.62-21.64c-.9-1.15-1-1.14-1.54.23a19.89,19.89,0,0,0-1.21,13.56c.08.29.3.6,0,.9a12.44,12.44,0,0,1-2.93-5.1c-2.09-5.59-1.28-11,1.25-16.21.59.16.78.64,1.07,1a197.9,197.9,0,0,0,18.92,21,29.22,29.22,0,0,0,4.49,3.59,16.44,16.44,0,0,0,13.39,2.36,8.44,8.44,0,0,1,6.72.62A9.82,9.82,0,0,1,247,56.74a21,21,0,0,0,8.13,7.08A8.93,8.93,0,0,0,257.56,64.73Z"/><path class="cls-11" d="M183.85,46.75A20.12,20.12,0,0,0,183,31.61c-.51-1.13-.61-1.15-1.37-.17A192.47,192.47,0,0,1,162,53.09c-3.4,3.23-7.29,5.54-12.11,6a15.67,15.67,0,0,1-3.93-.25c-.71-.11-1.41-.28-2.11-.42a7.69,7.69,0,0,0-8.63,3.44,21.69,21.69,0,0,1-8.54,7.67A13.79,13.79,0,0,1,118.23,71a3.14,3.14,0,0,1-.9-.28.86.86,0,0,1-.55-1c.13-.47.6-.21.92-.18,4.29.39,7.68-1,9.87-4.87a19.47,19.47,0,0,0,10-7.11c.59-.76,1.1-1.58,1.71-2.32a7.44,7.44,0,0,1,7.48-2.71c2.28.39,4.51,1,6.88.73a20,20,0,0,0,11.68-5.84A189.49,189.49,0,0,0,185,25.78c.83-1.07.86-1.07,1.38.13,3,6.79,2.67,13.34-1.4,19.63A2.65,2.65,0,0,1,183.85,46.75Z"/><path class="cls-10" d="M119.29,195.84c1.52,0,3,0,4.55,0,.64,0,.81.2.81.82q0,3.71,0,7.41c0,.61-.17.85-.82.84q-4.67,0-9.33,0c-.6,0-.74-.24-.74-.78,0-2.52,0-5,0-7.54,0-.7.31-.76.86-.75C116.18,195.86,117.74,195.84,119.29,195.84Z"/><path class="cls-1" d="M273.38,204.78c-1.51,0-3,0-4.54,0-.69,0-.89-.23-.88-.89q0-3.58,0-7.17c0-.63.11-.92.84-.92q4.6.06,9.21,0c.7,0,.87.22.86.89,0,2.38-.05,4.78,0,7.16,0,.76-.23.95-.95.93C276.41,204.75,274.9,204.78,273.38,204.78Z"/><path class="cls-11" d="M205.58,54a57.25,57.25,0,0,0,11.88,9.55l-.06.07a66.27,66.27,0,0,1-8.7-4c-2.68-1.33-5.3-2.78-7.92-4.24-.93-.52-1.12-.33-1.12.67a26.07,26.07,0,0,0,.77,6.52,2.09,2.09,0,0,1,.15,1.05,15.11,15.11,0,0,1-3.39-6.22,22.82,22.82,0,0,1-.84-8.22l2.09,1.11a49.71,49.71,0,0,0,6.8,3.42h0Z"/><path class="cls-11" d="M184.72,63.4c.23-1.64.5-3.28.68-4.93.11-.91.07-1.83.11-2.74,0-.69-.22-.88-.85-.52-.89.52-1.8,1-2.71,1.51q-6.72,3.68-13.72,6.79a.74.74,0,0,1-.81.07,49.1,49.1,0,0,0,12.32-9.89c.11.12.21.23.26,0H180a21.1,21.1,0,0,0,4.29-2c1.49-.76,2.94-1.6,4.56-2.49a21.58,21.58,0,0,1-.92,8.59A13.65,13.65,0,0,1,184.72,63.4Z"/><path class="cls-11" d="M205.3,71a29.94,29.94,0,0,0,10.62,6.33,25.24,25.24,0,0,1-5.15-.24c-1.67-.14-3.34-.38-5-.59-.76-.1-1.15.12-1,1a18,18,0,0,1-3.37-6.1c-.26-.65.18-.63.61-.59A15.43,15.43,0,0,0,205.3,71Z"/><path class="cls-11" d="M180.45,77.39c.18-1-.47-1-1.16-.91-2.54.28-5.08.57-7.61.83-.79.08-1.58.11-2.57.17a2.45,2.45,0,0,1,1.38-.74,30.72,30.72,0,0,0,9.3-5.55l.23-.25,0,0a12.8,12.8,0,0,0,3.09-.22c.48,0,1,0,.69.66A17.13,17.13,0,0,1,180.45,77.39Z"/><path class="cls-11" d="M218.1,90.19c2.26.38,4.51.85,6.87,1.11l-4.18,1.23C220.08,91.54,218.77,91.23,218.1,90.19Z"/><path class="cls-11" d="M164.41,92.53l-4.21-1.21c2.29-.26,4.49-.79,6.72-1C166.36,91.34,165,91.53,164.41,92.53Z"/><path class="cls-12" d="M475.66,107.83a15,15,0,0,1-2.59,8.68,10.74,10.74,0,0,1-17.36.57c-3.81-4.92-4.47-10.33-1.81-16A10.38,10.38,0,0,1,464,94.88a10.75,10.75,0,0,1,10.22,6.25A14,14,0,0,1,475.66,107.83Z"/><path class="cls-12" d="M699.53,94.88c6.32-.13,10.34,4.75,11.18,10.33a15.19,15.19,0,0,1-2.35,11.2,10.69,10.69,0,0,1-17.26.85A14.33,14.33,0,0,1,689,101.45C690.91,97.11,694.38,94.88,699.53,94.88Z"/><path class="cls-13" d="M561.33,108c0-3.87,0-7.74,0-11.61,0-.84.25-1.11,1.08-1.08a33.62,33.62,0,0,1,5.48.49,9.91,9.91,0,0,1,8.32,8.45,19.22,19.22,0,0,1-.14,8.2c-1.14,4.77-4.79,7.67-10.07,8.07-1.19.09-2.39.08-3.59.17-.84.07-1.09-.24-1.08-1.08C561.35,115.77,561.33,111.9,561.33,108Z"/><path class="cls-12" d="M651.41,108c0-3.88,0-7.75,0-11.62,0-.74.15-1.06,1-1a30,30,0,0,1,5.82.55,9.79,9.79,0,0,1,7.89,7.61,18.91,18.91,0,0,1,.09,8.66c-1.11,5-4.75,8-10.17,8.39-1.16.09-2.32.07-3.47.17-.89.08-1.29-.21-1.13-1.12a.48.48,0,0,0,0-.12Z"/><path class="cls-12" d="M501,121.36c-2.81,0-2.81,0-2.81-2.76,0-2.56,0-5.11,0-7.66,0-.79.23-1,1-1a28,28,0,0,1,5.25.33c2.78.62,4.28,2.39,4.29,5.1a5.33,5.33,0,0,1-4.28,5.69A16.55,16.55,0,0,1,501,121.36Z"/><path class="cls-13" d="M498.15,99.9c0-1.52,0-3,0-4.55,0-.68.21-.91.89-.88a21.08,21.08,0,0,1,3.46.2,4,4,0,0,1,3.18,2.76,8,8,0,0,1,.08,5.06,3.91,3.91,0,0,1-3.29,2.79c-1.38.24-3,.64-4.08,0-.74-.48-.15-2.16-.22-3.3C498.12,101.26,498.15,100.58,498.15,99.9Z"/><path class="cls-10" d="M687.7,155c0-2.31,0-4.63,0-6.94,0-.72.19-1,.94-1,1.55.07,3.11,0,4.66.09a5.55,5.55,0,0,1,5.45,4.66,12.25,12.25,0,0,1-.52,7.61,5.62,5.62,0,0,1-5,3.54c-1.59.13-3.19,0-4.79.08-.72,0-.73-.37-.73-.9C687.7,159.77,687.7,157.37,687.7,155Z"/><path class="cls-1" d="M623.36,155c0-2.31,0-4.63,0-6.94,0-.68.09-1,.89-1,1.56.08,3.12,0,4.67.09a5.57,5.57,0,0,1,5.49,4.75,12.48,12.48,0,0,1-.49,7.4,5.7,5.7,0,0,1-5.27,3.68c-1.48.09-3,0-4.43.06-.7,0-.88-.22-.87-.88C623.38,159.78,623.36,157.39,623.36,155Z"/><path class="cls-10" d="M488.25,149.72c0-2.86,0-2.86,2.83-2.85,1,0,2.08,0,3.11.09a2.27,2.27,0,0,1,2.28,2.42,2.7,2.7,0,0,1-2,3.13c-1.89.43-3.82.12-5.72.21-.45,0-.53-.24-.52-.61C488.26,151.32,488.25,150.52,488.25,149.72Z"/><path class="cls-10" d="M518.25,155.06a11.55,11.55,0,0,1,.79-4.7,5.9,5.9,0,0,1,5.72-3.94,5.73,5.73,0,0,1,5.63,4,13.13,13.13,0,0,1,0,9.24,5.83,5.83,0,0,1-5.63,4.06,6,6,0,0,1-5.68-4A11.83,11.83,0,0,1,518.25,155.06Z"/><path class="cls-13" d="M660.88,147.4c.94,2.94,1.87,5.89,2.81,8.84.16.51-.07.62-.52.62-1.52,0-3,0-4.55,0-.78,0-.86-.26-.65-.91.9-2.84,1.78-5.7,2.67-8.54Z"/><path class="cls-10" d="M551.94,150.4c0-1.1-.44-2.58.11-3.23s2.16-.18,3.3-.24a15.26,15.26,0,0,1,2,0,3.1,3.1,0,0,1,3.07,3.3c.06,2-1,3.46-2.88,3.62-1.7.14-3.42,0-5.14.07-.5,0-.58-.25-.58-.67,0-1,0-1.91,0-2.87Z"/><path class="cls-13" d="M462.58,146.94c.72,0,1.44,0,2.16,0a3.06,3.06,0,0,1,3.2,3.29c0,2.17-1.06,3.54-3.08,3.66-1.59.1-3.2,0-4.8.05-.51,0-.7-.19-.7-.7,0-1.87,0-3.75,0-5.63,0-.51.19-.71.7-.69.84,0,1.68,0,2.52,0Z"/><path class="cls-8" d="M194.28,148.61q37.07,0,74.14,0c1,0,1.42.18,1.4,1.33-.08,4.12-.07,8.23,0,12.35,0,1.1-.27,1.38-1.38,1.38q-41.2,0-82.41,0-32.81,0-65.61,0c-1.17,0-1.58-.21-1.55-1.48.1-4.12.07-8.23,0-12.35,0-1,.32-1.23,1.28-1.23Q157.22,148.64,194.28,148.61Zm.24,3.64H122.1a7.82,7.82,0,0,1-.84,0c-.71-.09-1,.15-1,.92.06,1.19,0,2.39,0,3.59,0,2-.32,1.8,1.75,1.8H266.91a5.77,5.77,0,0,1,.72,0c.76.09,1.07-.18,1-1a30.59,30.59,0,0,1,0-3.83c.1-1.17-.22-1.53-1.48-1.53Q230.86,152.28,194.52,152.25Z"/><path class="cls-11" d="M217.46,63.5l.21.17-.27-.1Z"/><path class="cls-2" d="M180,53.65c-.05.27-.15.16-.26,0Z"/><path class="cls-2" d="M205.58,54l-.38-.28C205.42,53.64,205.5,53.79,205.58,54Z"/><path class="cls-2" d="M180,70.94l-.23.25Z"/><path class="cls-10" d="M194.52,152.25q36.35,0,72.67,0c1.26,0,1.58.36,1.48,1.53a30.59,30.59,0,0,0,0,3.83c0,.81-.28,1.08-1,1a5.77,5.77,0,0,0-.72,0H122.06c-2.07,0-1.73.23-1.75-1.8,0-1.2,0-2.4,0-3.59,0-.77.26-1,1-.92a7.82,7.82,0,0,0,.84,0Z"/></g></g></svg>